<?xml version="1.0" encoding="UTF-8"?>
<svg xmlns="http://www.w3.org/2000/svg" xmlns:xlink="http://www.w3.org/1999/xlink" width="800pt" height="426pt" viewBox="0 0 800 426" version="1.1">
<defs>
<filter id="alpha" filterUnits="objectBoundingBox" x="0%" y="0%" width="100%" height="100%">
  <feColorMatrix type="matrix" in="SourceGraphic" values="0 0 0 0 1 0 0 0 0 1 0 0 0 0 1 0 0 0 1 0"/>
</filter>
<mask id="mask0">
  <g filter="url(#alpha)">
<rect x="0" y="0" width="800" height="426" style="fill:rgb(0%,0%,0%);fill-opacity:0.101961;stroke:none;"/>
  </g>
</mask>
<clipPath id="clip1">
  <rect width="800" height="426"/>
</clipPath>
<g id="surface6" clip-path="url(#clip1)">
<path style=" stroke:none;fill-rule:nonzero;fill:rgb(42.352941%,38.823529%,100%);fill-opacity:1;" d="M 738.890625 336.964844 C 738 338.886719 737.109375 340.78125 736.222656 342.652344 C 734.839844 345.558594 733.472656 348.410156 732.125 351.203125 C 731.527344 352.441406 730.929688 353.65625 730.34375 354.871094 C 723.734375 368.382812 717.5625 380.332031 712.324219 390.160156 C 702.636719 408.296875 683.835938 419.703125 663.285156 419.917969 L 546.742188 421.1875 L 545.515625 421.1875 L 535.523438 421.292969 L 526.976562 421.386719 L 500.773438 421.671875 L 499.710938 421.671875 L 486.371094 421.816406 L 485.964844 421.816406 L 403.734375 422.707031 L 330.335938 423.476562 L 321.796875 423.570312 L 268.773438 424.148438 L 268.710938 424.148438 L 234.320312 424.515625 L 233.953125 424.515625 L 125.210938 425.691406 L 92.679688 426.046875 C 85.738281 426.125 78.824219 425.132812 72.183594 423.109375 C 60.628906 419.617188 50.242188 413.035156 42.144531 404.078125 C 28.171875 388.675781 17.992188 370.703125 11.152344 351.203125 C 10.160156 348.390625 9.238281 345.539062 8.382812 342.652344 C -15.292969 262.566406 13.570312 159.242188 65.523438 90.097656 C 67.699219 87.207031 69.914062 84.386719 72.160156 81.640625 L 72.214844 81.578125 C 88.191406 61.953125 106.105469 45.558594 125.1875 33.902344 C 159 13.210938 196.464844 7.382812 233.3125 24.753906 C 264.492188 39.453125 293.601562 46.367188 321.820312 48.242188 C 324.671875 48.429688 327.523438 48.566406 330.359375 48.652344 C 395.089844 50.6875 455.753906 27.351562 526.992188 12.289062 C 529.828125 11.6875 532.671875 11.097656 535.539062 10.535156 C 586.359375 0.414062 642.734375 -4.921875 709.777344 6.296875 C 716.746094 7.4375 723.617188 9.082031 730.34375 11.21875 C 733.300781 12.171875 736.148438 13.199219 738.890625 14.292969 C 770.890625 27.320312 788.34375 51.390625 795.757812 81.546875 C 796.460938 84.347656 797.066406 87.195312 797.578125 90.089844 C 810.726562 162.632812 772.21875 265.535156 738.890625 336.964844 Z M 738.890625 336.964844 "/>
</g>
<mask id="mask1">
  <g filter="url(#alpha)">
<rect x="0" y="0" width="800" height="426" style="fill:rgb(0%,0%,0%);fill-opacity:0.101961;stroke:none;"/>
  </g>
</mask>
<clipPath id="clip2">
  <rect width="800" height="426"/>
</clipPath>
<g id="surface9" clip-path="url(#clip2)">
<path style=" stroke:none;fill-rule:nonzero;fill:rgb(42.352941%,38.823529%,100%);fill-opacity:1;" d="M 125.1875 33.902344 L 125.1875 425.777344 L 92.65625 426.128906 C 85.714844 426.210938 78.800781 425.21875 72.160156 423.191406 L 72.160156 81.578125 L 72.214844 81.578125 C 88.191406 61.929688 106.105469 45.539062 125.1875 33.902344 Z M 125.1875 33.902344 "/>
<path style=" stroke:none;fill-rule:nonzero;fill:rgb(42.352941%,38.823529%,100%);fill-opacity:1;" d="M 797.617188 90.097656 L 65.523438 90.097656 C 67.699219 87.207031 69.914062 84.386719 72.160156 81.640625 L 72.160156 81.578125 L 795.796875 81.578125 C 796.5 84.363281 797.105469 87.203125 797.617188 90.097656 Z M 797.617188 90.097656 "/>
<path style=" stroke:none;fill-rule:nonzero;fill:rgb(42.352941%,38.823529%,100%);fill-opacity:1;" d="M 738.890625 14.300781 L 738.890625 342.644531 L 736.222656 342.644531 C 734.839844 345.550781 733.472656 348.402344 732.125 351.195312 C 731.527344 352.433594 730.929688 353.648438 730.34375 354.863281 L 730.34375 11.195312 C 733.300781 12.148438 736.148438 13.183594 738.890625 14.300781 Z M 738.890625 14.300781 "/>
<path style=" stroke:none;fill-rule:nonzero;fill:rgb(42.352941%,38.823529%,100%);fill-opacity:1;" d="M 535.539062 10.511719 L 535.539062 421.324219 L 526.992188 421.417969 L 526.992188 12.265625 C 529.828125 11.664062 532.671875 11.074219 535.539062 10.511719 Z M 535.539062 10.511719 "/>
<path style=" stroke:none;fill-rule:nonzero;fill:rgb(42.352941%,38.823529%,100%);fill-opacity:1;" d="M 330.359375 48.628906 L 330.359375 423.554688 L 321.820312 423.648438 L 321.820312 48.222656 C 324.671875 48.40625 327.523438 48.511719 330.359375 48.628906 Z M 330.359375 48.628906 "/>
<path style=" stroke:none;fill-rule:nonzero;fill:rgb(42.352941%,38.823529%,100%);fill-opacity:1;" d="M 736.222656 342.652344 C 734.839844 345.558594 733.472656 348.410156 732.125 351.203125 L 11.152344 351.203125 C 10.160156 348.390625 9.238281 345.539062 8.382812 342.652344 Z M 736.222656 342.652344 "/>
</g>
<mask id="mask2">
  <g filter="url(#alpha)">
<rect x="0" y="0" width="800" height="426" style="fill:rgb(0%,0%,0%);fill-opacity:0.2;stroke:none;"/>
  </g>
</mask>
<clipPath id="clip3">
  <rect width="800" height="426"/>
</clipPath>
<g id="surface12" clip-path="url(#clip3)">
<path style=" stroke:none;fill-rule:nonzero;fill:rgb(0%,0%,0%);fill-opacity:1;" d="M 663.285156 410.351562 L 663.285156 420.347656 L 546.535156 421.425781 L 545.292969 421.449219 L 500.917969 421.855469 L 499.859375 421.871094 L 486.371094 421.984375 L 485.972656 421.984375 L 403.757812 422.746094 L 268.804688 424 L 268.6875 424 L 234.375 424.324219 L 234.003906 424.332031 L 81.535156 425.730469 L 81.535156 414.195312 L 117.386719 392.664062 L 189.316406 392.066406 L 190.855469 392.058594 L 191.363281 392.050781 L 192.898438 392.027344 L 227.433594 391.742188 L 228.980469 391.734375 L 229.472656 391.726562 L 231.007812 391.71875 L 242.082031 391.628906 L 242.375 391.621094 L 269.695312 391.390625 L 269.917969 391.390625 L 483.097656 389.589844 L 488.316406 389.550781 L 488.835938 389.550781 L 492.820312 389.511719 L 521.753906 389.273438 L 523.289062 389.25 L 524.710938 389.238281 L 525.449219 389.238281 L 534.449219 389.167969 L 536.230469 389.144531 L 538.621094 389.128906 L 546.113281 389.058594 L 558 388.960938 L 559.539062 388.945312 L 562.214844 388.929688 L 562.710938 388.929688 L 620.125 388.4375 Z M 663.285156 410.351562 "/>
</g>
<mask id="mask3">
  <g filter="url(#alpha)">
<rect x="0" y="0" width="800" height="426" style="fill:rgb(0%,0%,0%);fill-opacity:0.101961;stroke:none;"/>
  </g>
</mask>
<clipPath id="clip4">
  <rect width="800" height="426"/>
</clipPath>
<g id="surface15" clip-path="url(#clip4)">
<path style=" stroke:none;fill-rule:nonzero;fill:rgb(0%,0%,0%);fill-opacity:1;" d="M 227.550781 371.910156 L 227.550781 390.742188 C 227.550781 392.5625 226.503906 394.222656 224.859375 395.003906 C 224.261719 395.292969 223.605469 395.453125 222.941406 395.464844 L 196.117188 396.035156 C 195.402344 396.050781 194.691406 395.902344 194.042969 395.59375 C 192.371094 394.828125 191.296875 393.15625 191.300781 391.3125 L 191.300781 371.910156 Z M 227.550781 371.910156 "/>
</g>
<mask id="mask4">
  <g filter="url(#alpha)">
<rect x="0" y="0" width="800" height="426" style="fill:rgb(0%,0%,0%);fill-opacity:0.101961;stroke:none;"/>
  </g>
</mask>
<clipPath id="clip5">
  <rect width="800" height="426"/>
</clipPath>
<g id="surface18" clip-path="url(#clip5)">
<path style=" stroke:none;fill-rule:nonzero;fill:rgb(0%,0%,0%);fill-opacity:1;" d="M 523.289062 371.910156 L 559.539062 371.910156 L 559.539062 396.132812 L 523.289062 396.132812 Z M 523.289062 371.910156 "/>
</g>
<mask id="mask5">
  <g filter="url(#alpha)">
<rect x="0" y="0" width="800" height="426" style="fill:rgb(0%,0%,0%);fill-opacity:0.101961;stroke:none;"/>
  </g>
</mask>
<clipPath id="clip6">
  <rect width="800" height="426"/>
</clipPath>
<g id="surface21" clip-path="url(#clip6)">
<path style=" stroke:none;fill-rule:nonzero;fill:rgb(0%,0%,0%);fill-opacity:1;" d="M 177.214844 204.402344 L 177.214844 208.808594 L 162.613281 208.433594 L 162.613281 204.402344 Z M 177.214844 204.402344 "/>
</g>
<mask id="mask6">
  <g filter="url(#alpha)">
<rect x="0" y="0" width="800" height="426" style="fill:rgb(0%,0%,0%);fill-opacity:0.101961;stroke:none;"/>
  </g>
</mask>
<clipPath id="clip7">
  <rect width="800" height="426"/>
</clipPath>
<g id="surface24" clip-path="url(#clip7)">
<path style=" stroke:none;fill-rule:nonzero;fill:rgb(0%,0%,0%);fill-opacity:1;" d="M 570.167969 202.097656 L 570.167969 205.011719 L 555.566406 205.308594 L 555.566406 202.097656 Z M 570.167969 202.097656 "/>
</g>
<mask id="mask7">
  <g filter="url(#alpha)">
<rect x="0" y="0" width="800" height="426" style="fill:rgb(0%,0%,0%);fill-opacity:0.101961;stroke:none;"/>
  </g>
</mask>
<clipPath id="clip8">
  <rect width="800" height="426"/>
</clipPath>
<g id="surface27" clip-path="url(#clip8)">
<path style=" stroke:none;fill-rule:nonzero;fill:rgb(0%,0%,0%);fill-opacity:1;" d="M 636.050781 199.636719 C 636.09375 200.28125 635.871094 200.914062 635.433594 201.386719 C 635 201.863281 634.390625 202.140625 633.746094 202.15625 L 620.125 64.660156 L 621.664062 64.585938 C 622.933594 64.515625 624.027344 65.46875 624.136719 66.738281 Z M 636.050781 199.636719 "/>
</g>
<mask id="mask8">
  <g filter="url(#alpha)">
<rect x="0" y="0" width="800" height="426" style="fill:rgb(0%,0%,0%);fill-opacity:0.101961;stroke:none;"/>
  </g>
</mask>
<clipPath id="clip9">
  <rect width="800" height="426"/>
</clipPath>
<g id="surface30" clip-path="url(#clip9)">
<path style=" stroke:none;fill-rule:nonzero;fill:rgb(0%,0%,0%);fill-opacity:1;" d="M 129.285156 66.96875 L 111.9375 205.59375 L 109.273438 205.527344 C 108.332031 205.503906 107.449219 205.082031 106.835938 204.367188 C 106.226562 203.652344 105.949219 202.710938 106.074219 201.78125 L 125.769531 69.765625 C 126.03125 68.058594 127.5625 66.839844 129.285156 66.96875 Z M 129.285156 66.96875 "/>
</g>
<mask id="mask9">
  <g filter="url(#alpha)">
<rect x="0" y="0" width="800" height="426" style="fill:rgb(0%,0%,0%);fill-opacity:0.101961;stroke:none;"/>
  </g>
</mask>
<clipPath id="clip10">
  <rect width="800" height="426"/>
</clipPath>
<g id="surface33" clip-path="url(#clip10)">
<path style=" stroke:none;fill-rule:nonzero;fill:rgb(0%,0%,0%);fill-opacity:1;" d="M 162.613281 235.613281 L 177.214844 235.613281 L 177.214844 248.75 L 162.613281 248.75 Z M 162.613281 235.613281 "/>
</g>
<mask id="mask10">
  <g filter="url(#alpha)">
<rect x="0" y="0" width="800" height="426" style="fill:rgb(0%,0%,0%);fill-opacity:0.101961;stroke:none;"/>
  </g>
</mask>
<clipPath id="clip11">
  <rect width="800" height="426"/>
</clipPath>
<g id="surface36" clip-path="url(#clip11)">
<path style=" stroke:none;fill-rule:nonzero;fill:rgb(0%,0%,0%);fill-opacity:1;" d="M 229.085938 371.902344 L 229.085938 375.726562 L 192.835938 376.695312 L 192.835938 371.902344 Z M 229.085938 371.902344 "/>
</g>
<mask id="mask11">
  <g filter="url(#alpha)">
<rect x="0" y="0" width="800" height="426" style="fill:rgb(0%,0%,0%);fill-opacity:0.101961;stroke:none;"/>
  </g>
</mask>
<clipPath id="clip12">
  <rect width="800" height="426"/>
</clipPath>
<g id="surface39" clip-path="url(#clip12)">
<path style=" stroke:none;fill-rule:nonzero;fill:rgb(0%,0%,0%);fill-opacity:1;" d="M 142.824219 237.152344 L 142.824219 376.488281 L 142.785156 376.488281 C 141.117188 376.464844 139.769531 375.117188 139.75 373.449219 L 139.75 240.191406 C 139.769531 238.519531 141.117188 237.171875 142.785156 237.152344 Z M 142.824219 237.152344 "/>
</g>
<mask id="mask12">
  <g filter="url(#alpha)">
<rect x="0" y="0" width="800" height="426" style="fill:rgb(0%,0%,0%);fill-opacity:0.101961;stroke:none;"/>
  </g>
</mask>
<clipPath id="clip13">
  <rect width="800" height="426"/>
</clipPath>
<g id="surface42" clip-path="url(#clip13)">
<path style=" stroke:none;fill-rule:nonzero;fill:rgb(0%,0%,0%);fill-opacity:1;" d="M 555.566406 235.613281 L 570.167969 235.613281 L 570.167969 249.011719 L 555.566406 249.011719 Z M 555.566406 235.613281 "/>
</g>
<mask id="mask13">
  <g filter="url(#alpha)">
<rect x="0" y="0" width="800" height="426" style="fill:rgb(0%,0%,0%);fill-opacity:0.101961;stroke:none;"/>
  </g>
</mask>
<clipPath id="clip14">
  <rect width="800" height="426"/>
</clipPath>
<g id="surface45" clip-path="url(#clip14)">
<path style=" stroke:none;fill-rule:nonzero;fill:rgb(0%,0%,0%);fill-opacity:1;" d="M 558 371.902344 L 558 376.832031 L 521.753906 375.863281 L 521.753906 371.902344 Z M 558 371.902344 "/>
</g>
<mask id="mask14">
  <g filter="url(#alpha)">
<rect x="0" y="0" width="800" height="426" style="fill:rgb(0%,0%,0%);fill-opacity:0.101961;stroke:none;"/>
  </g>
</mask>
<clipPath id="clip15">
  <rect width="800" height="426"/>
</clipPath>
<g id="surface48" clip-path="url(#clip15)">
<path style=" stroke:none;fill-rule:nonzero;fill:rgb(0%,0%,0%);fill-opacity:1;" d="M 605.839844 240.191406 L 605.839844 373.449219 C 605.820312 375.132812 604.449219 376.488281 602.765625 376.488281 L 602.765625 237.152344 C 604.449219 237.152344 605.820312 238.507812 605.839844 240.191406 Z M 605.839844 240.191406 "/>
</g>
<mask id="mask15">
  <g filter="url(#alpha)">
<rect x="0" y="0" width="800" height="426" style="fill:rgb(0%,0%,0%);fill-opacity:0.101961;stroke:none;"/>
  </g>
</mask>
<clipPath id="clip16">
  <rect width="800" height="426"/>
</clipPath>
<g id="surface51" clip-path="url(#clip16)">
<path style=" stroke:none;fill-rule:nonzero;fill:rgb(0%,0%,0%);fill-opacity:1;" d="M 663.285156 410.351562 L 663.285156 420.347656 L 546.535156 421.425781 L 545.292969 421.449219 L 500.917969 421.855469 L 499.859375 421.871094 L 486.371094 421.984375 L 485.972656 421.984375 L 403.757812 422.746094 L 268.804688 424 L 268.6875 424 L 234.375 424.324219 L 234.003906 424.332031 L 81.535156 425.730469 L 81.535156 414.195312 L 237.164062 413.175781 L 237.53125 413.175781 L 269.035156 412.957031 L 269.179688 412.957031 L 486.722656 411.519531 L 486.945312 411.519531 L 487.078125 411.511719 L 487.4375 411.511719 L 491.121094 411.488281 L 492.242188 411.488281 L 549.488281 411.105469 L 552.867188 411.089844 L 553.621094 411.082031 Z M 663.285156 410.351562 "/>
</g>
<linearGradient id="linear0" gradientUnits="userSpaceOnUse" x1="597.75" y1="725.44" x2="597.75" y2="347.69" gradientTransform="matrix(0.768492,0,0,0.768953,-60.972142,-132.959675)">
<stop offset="0" style="stop-color:rgb(50.196078%,50.196078%,50.196078%);stop-opacity:0.25098;"/>
<stop offset="0.54" style="stop-color:rgb(50.196078%,50.196078%,50.196078%);stop-opacity:0.121569;"/>
<stop offset="1" style="stop-color:rgb(50.196078%,50.196078%,50.196078%);stop-opacity:0.101961;"/>
</linearGradient>
<mask id="mask16">
  <g filter="url(#alpha)">
<rect x="0" y="0" width="800" height="426" style="fill:rgb(0%,0%,0%);fill-opacity:0.101961;stroke:none;"/>
  </g>
</mask>
<clipPath id="clip17">
  <rect width="800" height="426"/>
</clipPath>
<g id="surface54" clip-path="url(#clip17)">
<path style=" stroke:none;fill-rule:nonzero;fill:rgb(0%,0%,0%);fill-opacity:1;" d="M 413.910156 290.019531 C 413.910156 290.019531 337.445312 299.246094 344.746094 290.019531 C 347.390625 286.679688 348.117188 276.792969 347.972656 265.527344 C 359.632812 260.542969 374.464844 264.257812 374.464844 264.257812 C 390.078125 261.144531 400.09375 261.75 406.492188 263.933594 C 408.519531 272.75 410.996094 281.457031 413.910156 290.019531 Z M 413.910156 290.019531 "/>
</g>
<mask id="mask17">
  <g filter="url(#alpha)">
<rect x="0" y="0" width="800" height="426" style="fill:rgb(0%,0%,0%);fill-opacity:0.101961;stroke:none;"/>
  </g>
</mask>
<clipPath id="clip18">
  <rect width="800" height="426"/>
</clipPath>
<g id="surface57" clip-path="url(#clip18)">
<path style=" stroke:none;fill-rule:nonzero;fill:rgb(0%,0%,0%);fill-opacity:1;" d="M 281.34375 334.234375 C 281.34375 334.234375 325.148438 356.917969 340.902344 354.226562 Z M 281.34375 334.234375 "/>
</g>
<mask id="mask18">
  <g filter="url(#alpha)">
<rect x="0" y="0" width="800" height="426" style="fill:rgb(0%,0%,0%);fill-opacity:0.101961;stroke:none;"/>
  </g>
</mask>
<clipPath id="clip19">
  <rect width="800" height="426"/>
</clipPath>
<g id="surface60" clip-path="url(#clip19)">
<path style=" stroke:none;fill-rule:nonzero;fill:rgb(0%,0%,0%);fill-opacity:1;" d="M 370.488281 325.003906 C 370.488281 325.003906 413.140625 338.847656 427.359375 340.769531 C 441.574219 342.691406 370.488281 325.003906 370.488281 325.003906 Z M 370.488281 325.003906 "/>
</g>
<mask id="mask19">
  <g filter="url(#alpha)">
<rect x="0" y="0" width="800" height="426" style="fill:rgb(0%,0%,0%);fill-opacity:0.101961;stroke:none;"/>
  </g>
</mask>
<clipPath id="clip20">
  <rect width="800" height="426"/>
</clipPath>
<g id="surface63" clip-path="url(#clip20)">
<path style=" stroke:none;fill-rule:nonzero;fill:rgb(0%,0%,0%);fill-opacity:1;" d="M 417.796875 280.46875 C 395.511719 284.574219 353.550781 283.691406 335.414062 283.066406 C 342.0625 259.230469 374.476562 267.335938 374.476562 267.335938 C 414.601562 259.320312 417.675781 275.945312 417.796875 280.46875 Z M 417.796875 280.46875 "/>
</g>
<mask id="mask20">
  <g filter="url(#alpha)">
<rect x="0" y="0" width="800" height="426" style="fill:rgb(0%,0%,0%);fill-opacity:0.101961;stroke:none;"/>
  </g>
</mask>
<clipPath id="clip21">
  <rect width="800" height="426"/>
</clipPath>
<g id="surface66" clip-path="url(#clip21)">
<path style=" stroke:none;fill-rule:nonzero;fill:rgb(0%,0%,0%);fill-opacity:1;" d="M 404.1875 252.632812 C 403.058594 253.136719 401.90625 253.582031 400.730469 253.96875 C 392.445312 256.832031 384.09375 259.714844 375.371094 260.757812 C 366.648438 261.804688 357.496094 260.882812 349.886719 256.53125 C 349.085938 256.078125 348.316406 255.578125 347.582031 255.03125 C 346.734375 238.113281 344.699219 221.582031 344.699219 221.582031 C 344.699219 221.582031 411.558594 190.054688 403.875 215.046875 C 400.816406 225.140625 401.851562 239.320312 404.1875 252.632812 Z M 404.1875 252.632812 "/>
</g>
<mask id="mask21">
  <g filter="url(#alpha)">
<rect x="0" y="0" width="800" height="426" style="fill:rgb(0%,0%,0%);fill-opacity:0.101961;stroke:none;"/>
  </g>
</mask>
<clipPath id="clip22">
  <rect width="800" height="426"/>
</clipPath>
<g id="surface69" clip-path="url(#clip22)">
<path style=" stroke:none;fill-rule:nonzero;fill:rgb(0%,0%,0%);fill-opacity:1;" d="M 489.550781 372.375 L 489.476562 373.472656 L 489.476562 373.550781 L 489.34375 375.316406 L 488.324219 389.550781 L 487.085938 406.699219 L 486.730469 411.527344 L 485.964844 421.863281 L 485.964844 421.992188 L 403.734375 422.761719 L 268.796875 424.222656 L 268.796875 424.871094 L 268.6875 424.871094 L 268.6875 424.007812 L 269.035156 412.964844 L 269.695312 391.390625 L 270.261719 373.097656 L 270.316406 371.273438 C 270.386719 369.050781 271.363281 366.953125 273.023438 365.472656 C 274.683594 363.996094 276.878906 363.265625 279.09375 363.453125 C 282.71875 363.761719 287.429688 364.136719 293.0625 364.539062 L 295.371094 364.707031 C 327.898438 366.96875 388.019531 369.890625 448.683594 366.246094 C 449.960938 366.175781 451.242188 366.097656 452.527344 366.007812 C 461.933594 365.414062 471.332031 364.652344 480.636719 363.699219 C 483.019531 363.449219 485.390625 364.269531 487.109375 365.933594 C 488.832031 367.601562 489.722656 369.945312 489.550781 372.335938 Z M 489.550781 372.375 "/>
</g>
<mask id="mask22">
  <g filter="url(#alpha)">
<rect x="0" y="0" width="800" height="426" style="fill:rgb(0%,0%,0%);fill-opacity:0.101961;stroke:none;"/>
  </g>
</mask>
<clipPath id="clip23">
  <rect width="800" height="426"/>
</clipPath>
<g id="surface72" clip-path="url(#clip23)">
<path style=" stroke:none;fill-rule:nonzero;fill:rgb(0%,0%,0%);fill-opacity:1;" d="M 489.78125 377.761719 L 488.835938 389.550781 L 487.429688 407.121094 L 487.078125 411.519531 L 486.308594 421.371094 L 486.261719 421.863281 L 486.261719 421.992188 L 486.148438 423.132812 L 486.234375 421.992188 L 486.007812 421.992188 L 403.78125 422.761719 L 268.796875 424.222656 L 268.796875 424.007812 L 269.171875 412.964844 L 269.941406 391.390625 L 270.433594 377.046875 C 270.480469 375.390625 271.367188 373.871094 272.785156 373.011719 C 273.652344 372.476562 274.671875 372.234375 275.6875 372.320312 C 277.300781 372.449219 279.285156 372.605469 281.597656 372.773438 C 285.355469 373.050781 289.992188 373.371094 295.386719 373.710938 C 305.375 374.339844 317.910156 375.019531 332.273438 375.570312 C 372.234375 377.109375 426.183594 377.625 477.425781 373.132812 C 479.730469 372.933594 482.113281 372.710938 484.441406 372.488281 C 485.363281 372.398438 486.292969 372.574219 487.117188 372.996094 C 487.351562 373.113281 487.570312 373.25 487.777344 373.410156 C 488.445312 373.894531 488.976562 374.546875 489.3125 375.304688 C 489.390625 375.453125 489.457031 375.609375 489.507812 375.773438 C 489.738281 376.410156 489.832031 377.085938 489.78125 377.761719 Z M 489.78125 377.761719 "/>
</g>
<mask id="mask23">
  <g filter="url(#alpha)">
<rect x="0" y="0" width="800" height="426" style="fill:rgb(0%,0%,0%);fill-opacity:0.101961;stroke:none;"/>
  </g>
</mask>
<clipPath id="clip24">
  <rect width="800" height="426"/>
</clipPath>
<g id="surface75" clip-path="url(#clip24)">
<path style=" stroke:none;fill-rule:nonzero;fill:rgb(0%,0%,0%);fill-opacity:1;" d="M 229.085938 388.289062 L 229.085938 390.742188 C 229.089844 392.5625 228.042969 394.222656 226.398438 395.003906 L 195.582031 395.59375 C 193.90625 394.828125 192.835938 393.15625 192.835938 391.3125 L 192.835938 389.003906 Z M 229.085938 388.289062 "/>
</g>
<mask id="mask24">
  <g filter="url(#alpha)">
<rect x="0" y="0" width="800" height="426" style="fill:rgb(0%,0%,0%);fill-opacity:0.101961;stroke:none;"/>
  </g>
</mask>
<clipPath id="clip25">
  <rect width="800" height="426"/>
</clipPath>
<g id="surface78" clip-path="url(#clip25)">
<path style=" stroke:none;fill-rule:nonzero;fill:rgb(0%,0%,0%);fill-opacity:1;" d="M 229.472656 396.449219 L 189.316406 397.21875 L 189.316406 390.550781 L 229.472656 389.78125 Z M 229.472656 396.449219 "/>
</g>
<mask id="mask25">
  <g filter="url(#alpha)">
<rect x="0" y="0" width="800" height="426" style="fill:rgb(0%,0%,0%);fill-opacity:0.101961;stroke:none;"/>
  </g>
</mask>
<clipPath id="clip26">
  <rect width="800" height="426"/>
</clipPath>
<g id="surface81" clip-path="url(#clip26)">
<path style=" stroke:none;fill-rule:nonzero;fill:rgb(0%,0%,0%);fill-opacity:1;" d="M 363.949219 145.0625 C 363.199219 144.085938 362.699219 142.941406 362.496094 141.726562 C 362.3125 142.914062 362.421875 144.128906 362.820312 145.261719 C 363.203125 145.226562 363.578125 145.160156 363.949219 145.0625 Z M 363.949219 145.0625 "/>
<path style=" stroke:none;fill-rule:nonzero;fill:rgb(0%,0%,0%);fill-opacity:1;" d="M 354.191406 150.167969 C 354.046875 149.226562 353.949219 148.277344 353.90625 147.324219 C 353.90625 148.269531 353.90625 149.222656 353.90625 150.175781 Z M 354.191406 150.167969 "/>
<path style=" stroke:none;fill-rule:nonzero;fill:rgb(0%,0%,0%);fill-opacity:1;" d="M 416.824219 175.828125 C 416.863281 175.144531 416.957031 174.460938 417.097656 173.792969 C 417.460938 172.621094 417.667969 171.410156 417.714844 170.183594 C 417.695312 169.910156 417.65625 169.636719 417.589844 169.371094 C 417.460938 170.078125 417.253906 170.785156 417.097656 171.484375 C 416.792969 172.910156 416.699219 174.375 416.824219 175.828125 Z M 416.824219 175.828125 "/>
<path style=" stroke:none;fill-rule:nonzero;fill:rgb(0%,0%,0%);fill-opacity:1;" d="M 400.835938 152.066406 L 401.675781 152.675781 C 402.382812 152.164062 403.042969 151.59375 403.648438 150.96875 C 404.238281 150.152344 404.351562 149.089844 403.941406 148.167969 C 403.867188 148.34375 403.769531 148.511719 403.648438 148.660156 C 402.707031 149.875 400.613281 150.546875 400.835938 152.066406 Z M 400.835938 152.066406 "/>
<path style=" stroke:none;fill-rule:nonzero;fill:rgb(0%,0%,0%);fill-opacity:1;" d="M 337.691406 159.464844 C 337.410156 160.027344 337.1875 160.613281 337.023438 161.21875 C 338.222656 160.546875 339.519531 160.058594 340.863281 159.765625 Z M 337.691406 159.464844 "/>
<path style=" stroke:none;fill-rule:nonzero;fill:rgb(0%,0%,0%);fill-opacity:1;" d="M 348.289062 151.097656 C 347.785156 150.820312 347.300781 150.503906 346.84375 150.152344 C 346.824219 150.457031 346.847656 150.761719 346.914062 151.0625 C 347.371094 151.039062 347.832031 151.050781 348.289062 151.097656 Z M 348.289062 151.097656 "/>
<path style=" stroke:none;fill-rule:nonzero;fill:rgb(0%,0%,0%);fill-opacity:1;" d="M 423.421875 196.40625 C 423.109375 200.136719 421.371094 203.726562 419.964844 207.261719 C 417.144531 214.351562 415.554688 221.875 414.363281 229.417969 C 413.292969 236.175781 412.058594 243.851562 406.292969 247.59375 C 404.648438 248.578125 402.882812 249.355469 401.046875 249.902344 C 392.761719 252.769531 384.40625 255.644531 375.683594 256.691406 C 366.960938 257.738281 357.808594 256.824219 350.203125 252.46875 C 347.996094 251.320312 346.101562 249.648438 344.683594 247.601562 C 342.632812 244.351562 342.59375 240.273438 341.609375 236.554688 C 340.769531 233.789062 339.746094 231.085938 338.535156 228.464844 C 336.835938 224.328125 335.53125 220.003906 334.234375 215.753906 C 333.027344 211.800781 331.828125 207.84375 330.628906 203.886719 C 330.234375 202.699219 329.941406 201.476562 329.753906 200.234375 C 329.453125 202.203125 330.035156 204.265625 330.628906 206.195312 C 331.828125 210.15625 333.027344 214.113281 334.234375 218.058594 C 335.53125 222.34375 336.835938 226.632812 338.535156 230.769531 C 339.746094 233.394531 340.769531 236.097656 341.609375 238.859375 C 342.578125 242.582031 342.617188 246.65625 344.683594 249.910156 C 346.101562 251.957031 347.996094 253.625 350.203125 254.777344 C 357.808594 259.128906 366.984375 260.042969 375.683594 259 C 384.382812 257.953125 392.730469 255.078125 401.046875 252.207031 C 402.882812 251.660156 404.648438 250.886719 406.292969 249.902344 C 412.019531 246.15625 413.292969 238.484375 414.363281 231.722656 C 415.554688 224.179688 417.144531 216.660156 419.964844 209.570312 C 421.640625 205.355469 423.808594 201.074219 423.4375 196.542969 C 423.4375 196.5 423.421875 196.453125 423.421875 196.40625 Z M 423.421875 196.40625 "/>
<path style=" stroke:none;fill-rule:nonzero;fill:rgb(0%,0%,0%);fill-opacity:1;" d="M 331.441406 193.429688 C 331.441406 193.429688 331.441406 193.375 331.441406 193.34375 C 331.582031 191.988281 331.460938 190.621094 331.089844 189.308594 C 330.9375 188.464844 330.835938 187.613281 330.789062 186.753906 C 330.699219 188.382812 330.800781 190.011719 331.089844 191.617188 C 331.210938 192.214844 331.351562 192.824219 331.441406 193.429688 Z M 331.441406 193.429688 "/>
<path style=" stroke:none;fill-rule:nonzero;fill:rgb(0%,0%,0%);fill-opacity:1;" d="M 333.785156 174.621094 C 334.378906 173.628906 335.046875 172.683594 335.792969 171.800781 C 334.386719 173.144531 331.789062 171.945312 331.242188 170.078125 C 331.042969 170.832031 331.042969 171.628906 331.242188 172.382812 C 331.628906 173.53125 332.597656 174.386719 333.785156 174.621094 Z M 333.785156 174.621094 "/>
</g>
<mask id="mask26">
  <g filter="url(#alpha)">
<rect x="0" y="0" width="800" height="426" style="fill:rgb(0%,0%,0%);fill-opacity:0.101961;stroke:none;"/>
  </g>
</mask>
<clipPath id="clip27">
  <rect width="800" height="426"/>
</clipPath>
<g id="surface84" clip-path="url(#clip27)">
<path style=" stroke:none;fill-rule:nonzero;fill:rgb(0%,0%,0%);fill-opacity:1;" d="M 525.726562 371.910156 C 525.726562 371.910156 528.160156 380.753906 525.726562 388.445312 C 523.289062 396.132812 525.726562 371.910156 525.726562 371.910156 Z M 525.726562 371.910156 "/>
</g>
<mask id="mask27">
  <g filter="url(#alpha)">
<rect x="0" y="0" width="800" height="426" style="fill:rgb(0%,0%,0%);fill-opacity:0.101961;stroke:none;"/>
  </g>
</mask>
<clipPath id="clip28">
  <rect width="800" height="426"/>
</clipPath>
<g id="surface87" clip-path="url(#clip28)">
<path style=" stroke:none;fill-rule:nonzero;fill:rgb(0%,0%,0%);fill-opacity:1;" d="M 536.101562 380.933594 C 536.101562 380.933594 537.121094 392.160156 534.816406 394.148438 C 532.511719 396.140625 536.101562 380.933594 536.101562 380.933594 Z M 536.101562 380.933594 "/>
</g>
</defs>
<g id="surface1">
<use xlink:href="#surface6" mask="url(#mask0)"/>
<use xlink:href="#surface9" mask="url(#mask1)"/>
<path style=" stroke:none;fill-rule:nonzero;fill:rgb(24.705882%,23.921569%,33.72549%);fill-opacity:1;" d="M 162.613281 204.410156 L 177.214844 204.410156 L 177.214844 248.75 L 162.613281 248.75 Z M 162.613281 204.410156 "/>
<path style=" stroke:none;fill-rule:nonzero;fill:rgb(24.705882%,23.921569%,33.72549%);fill-opacity:1;" d="M 555.566406 202.105469 L 570.167969 202.105469 L 570.167969 249.011719 L 555.566406 249.011719 Z M 555.566406 202.105469 "/>
<path style=" stroke:none;fill-rule:nonzero;fill:rgb(39.607843%,38.039216%,49.019608%);fill-opacity:1;" d="M 663.285156 410.351562 L 663.285156 420.347656 L 546.535156 421.425781 L 545.292969 421.449219 L 500.917969 421.855469 L 499.859375 421.871094 L 486.371094 421.984375 L 485.972656 421.984375 L 403.757812 422.746094 L 268.804688 424 L 268.6875 424 L 234.375 424.324219 L 234.003906 424.332031 L 81.535156 425.730469 L 81.535156 414.195312 L 117.386719 392.664062 L 189.316406 392.066406 L 190.855469 392.058594 L 191.363281 392.050781 L 192.898438 392.027344 L 227.433594 391.742188 L 228.980469 391.734375 L 229.472656 391.726562 L 231.007812 391.71875 L 242.082031 391.628906 L 242.375 391.621094 L 269.695312 391.390625 L 269.917969 391.390625 L 483.097656 389.589844 L 488.316406 389.550781 L 488.835938 389.550781 L 492.820312 389.511719 L 521.753906 389.273438 L 523.289062 389.25 L 524.710938 389.238281 L 525.449219 389.238281 L 534.449219 389.167969 L 536.230469 389.144531 L 538.621094 389.128906 L 546.113281 389.058594 L 558 388.960938 L 559.539062 388.945312 L 562.214844 388.929688 L 562.710938 388.929688 L 620.125 388.4375 Z M 663.285156 410.351562 "/>
<use xlink:href="#surface12" mask="url(#mask2)"/>
<path style=" stroke:none;fill-rule:nonzero;fill:rgb(24.705882%,23.921569%,33.72549%);fill-opacity:1;" d="M 227.550781 371.910156 L 227.550781 390.742188 C 227.550781 392.5625 226.503906 394.222656 224.859375 395.003906 C 224.261719 395.292969 223.605469 395.453125 222.941406 395.464844 L 196.117188 396.035156 C 195.402344 396.050781 194.691406 395.902344 194.042969 395.59375 C 192.371094 394.828125 191.296875 393.15625 191.300781 391.3125 L 191.300781 371.910156 Z M 227.550781 371.910156 "/>
<use xlink:href="#surface15" mask="url(#mask3)"/>
<path style=" stroke:none;fill-rule:nonzero;fill:rgb(24.705882%,23.921569%,33.72549%);fill-opacity:1;" d="M 229.085938 371.910156 L 229.085938 390.742188 C 229.089844 392.5625 228.042969 394.222656 226.398438 395.003906 C 225.796875 395.292969 225.144531 395.453125 224.476562 395.464844 L 197.65625 396.035156 C 196.941406 396.050781 196.230469 395.902344 195.582031 395.59375 C 193.90625 394.828125 192.835938 393.15625 192.835938 391.3125 L 192.835938 371.910156 Z M 229.085938 371.910156 "/>
<path style=" stroke:none;fill-rule:nonzero;fill:rgb(24.705882%,23.921569%,33.72549%);fill-opacity:1;" d="M 523.289062 371.910156 L 559.539062 371.910156 L 559.539062 396.132812 L 523.289062 396.132812 Z M 523.289062 371.910156 "/>
<use xlink:href="#surface18" mask="url(#mask4)"/>
<path style=" stroke:none;fill-rule:nonzero;fill:rgb(24.705882%,23.921569%,33.72549%);fill-opacity:1;" d="M 521.753906 371.910156 L 558 371.910156 L 558 396.132812 L 521.753906 396.132812 Z M 521.753906 371.910156 "/>
<use xlink:href="#surface21" mask="url(#mask5)"/>
<path style=" stroke:none;fill-rule:nonzero;fill:rgb(39.607843%,38.039216%,49.019608%);fill-opacity:1;" d="M 273.320312 80.277344 L 255.777344 206.386719 C 255.546875 208.054688 254.101562 209.28125 252.417969 209.238281 L 111.9375 205.59375 L 109.273438 205.527344 C 108.332031 205.503906 107.449219 205.082031 106.835938 204.367188 C 106.226562 203.652344 105.949219 202.710938 106.074219 201.78125 L 125.769531 69.765625 C 126.035156 68.070312 127.550781 66.859375 129.261719 66.976562 L 270.246094 76.527344 C 271.167969 76.578125 272.023438 77.015625 272.605469 77.726562 C 273.191406 78.441406 273.449219 79.367188 273.320312 80.277344 Z M 273.320312 80.277344 "/>
<path style=" stroke:none;fill-rule:nonzero;fill:rgb(42.352941%,38.823529%,100%);fill-opacity:1;" d="M 135.199219 76.25 L 120.347656 192.613281 L 249.453125 196.714844 L 265.328125 84.445312 Z M 135.199219 76.25 "/>
<path style=" stroke:none;fill-rule:nonzero;fill:rgb(39.607843%,38.039216%,49.019608%);fill-opacity:1;" d="M 299.65625 74.449219 L 448.753906 74.449219 C 451.015625 74.449219 452.847656 76.285156 452.847656 78.546875 L 452.847656 203.632812 C 452.847656 205.898438 451.015625 207.734375 448.753906 207.734375 L 299.65625 207.734375 C 297.394531 207.734375 295.5625 205.898438 295.5625 203.632812 L 295.5625 78.546875 C 295.5625 76.285156 297.394531 74.449219 299.65625 74.449219 Z M 299.65625 74.449219 "/>
<path style=" stroke:none;fill-rule:nonzero;fill:rgb(42.352941%,38.823529%,100%);fill-opacity:1;" d="M 302.984375 83.421875 L 445.925781 83.421875 L 445.925781 194.40625 L 302.984375 194.40625 Z M 302.984375 83.421875 "/>
<use xlink:href="#surface24" mask="url(#mask6)"/>
<path style=" stroke:none;fill-rule:nonzero;fill:rgb(39.607843%,38.039216%,49.019608%);fill-opacity:1;" d="M 636.050781 199.636719 C 636.09375 200.28125 635.871094 200.914062 635.433594 201.386719 C 635 201.863281 634.390625 202.140625 633.746094 202.15625 L 489.882812 205.132812 C 488.644531 205.160156 487.59375 204.222656 487.476562 202.988281 L 475.113281 74.359375 C 475.050781 73.710938 475.253906 73.070312 475.679688 72.582031 C 476.105469 72.089844 476.710938 71.796875 477.355469 71.765625 L 620.125 64.660156 L 621.664062 64.585938 C 622.933594 64.515625 624.027344 65.46875 624.136719 66.738281 Z M 636.050781 199.636719 "/>
<path style=" stroke:none;fill-rule:nonzero;fill:rgb(42.352941%,38.823529%,100%);fill-opacity:1;" d="M 483.328125 79.324219 L 613.71875 72.914062 L 624.730469 189.792969 L 495.371094 192.867188 Z M 483.328125 79.324219 "/>
<use xlink:href="#surface27" mask="url(#mask7)"/>
<use xlink:href="#surface30" mask="url(#mask8)"/>
<use xlink:href="#surface33" mask="url(#mask9)"/>
<use xlink:href="#surface36" mask="url(#mask10)"/>
<path style=" stroke:none;fill-rule:nonzero;fill:rgb(39.607843%,38.039216%,49.019608%);fill-opacity:1;" d="M 293.0625 240.191406 L 293.0625 369.527344 C 293.046875 371.167969 291.742188 372.503906 290.105469 372.566406 L 142.824219 376.488281 L 142.785156 376.488281 C 141.117188 376.464844 139.769531 375.117188 139.75 373.449219 L 139.75 240.191406 C 139.769531 238.519531 141.117188 237.171875 142.785156 237.152344 L 290.027344 237.152344 C 291.695312 237.171875 293.042969 238.519531 293.0625 240.191406 Z M 293.0625 240.191406 "/>
<use xlink:href="#surface39" mask="url(#mask11)"/>
<path style=" stroke:none;fill-rule:nonzero;fill:rgb(83.137255%,87.45098%,92.54902%);fill-opacity:1;" d="M 149.546875 245.410156 L 285.957031 245.410156 L 285.957031 359.410156 L 149.546875 362.484375 Z M 149.546875 245.410156 "/>
<use xlink:href="#surface42" mask="url(#mask12)"/>
<use xlink:href="#surface45" mask="url(#mask13)"/>
<path style=" stroke:none;fill-rule:nonzero;fill:rgb(39.607843%,38.039216%,49.019608%);fill-opacity:1;" d="M 605.839844 240.191406 L 605.839844 373.449219 C 605.820312 375.132812 604.449219 376.488281 602.765625 376.488281 L 455.453125 372.566406 C 453.816406 372.503906 452.515625 371.167969 452.496094 369.527344 L 452.496094 240.191406 C 452.515625 238.519531 453.863281 237.171875 455.53125 237.152344 L 602.773438 237.152344 C 604.453125 237.15625 605.820312 238.507812 605.839844 240.191406 Z M 605.839844 240.191406 "/>
<use xlink:href="#surface48" mask="url(#mask14)"/>
<path style=" stroke:none;fill-rule:nonzero;fill:rgb(83.137255%,87.45098%,92.54902%);fill-opacity:1;" d="M 596.042969 245.410156 L 459.636719 245.410156 L 459.636719 359.410156 L 596.042969 362.484375 Z M 596.042969 245.410156 "/>
<path style=" stroke:none;fill-rule:nonzero;fill:rgb(39.607843%,38.039216%,49.019608%);fill-opacity:1;" d="M 448.683594 240.191406 L 448.683594 369.527344 C 448.664062 371.167969 447.363281 372.503906 445.726562 372.566406 L 298.445312 376.488281 C 296.761719 376.488281 295.390625 375.132812 295.371094 373.449219 L 295.371094 240.191406 C 295.390625 238.519531 296.738281 237.171875 298.40625 237.152344 L 445.648438 237.152344 C 447.316406 237.171875 448.664062 238.519531 448.683594 240.191406 Z M 448.683594 240.191406 "/>
<path style=" stroke:none;fill-rule:nonzero;fill:rgb(83.137255%,87.45098%,92.54902%);fill-opacity:1;" d="M 305.167969 245.410156 L 441.574219 245.410156 L 441.574219 359.410156 L 305.167969 362.484375 Z M 305.167969 245.410156 "/>
<use xlink:href="#surface51" mask="url(#mask15)"/>
<path style=" stroke:none;fill-rule:nonzero;fill:rgb(98.431373%,74.509804%,74.509804%);fill-opacity:1;" d="M 413.902344 209.277344 C 413.902344 231.078125 396.242188 248.75 374.457031 248.75 C 352.667969 248.75 335.007812 231.078125 335.007812 209.277344 C 335.007812 187.480469 352.667969 169.808594 374.457031 169.808594 C 396.242188 169.808594 413.902344 187.480469 413.902344 209.277344 Z M 413.902344 209.277344 "/>
<path style=" stroke:none;fill-rule:nonzero;fill:url(#linear0);" d="M 233.929688 424.601562 C 233.929688 424.515625 233.976562 424.421875 234.003906 424.332031 C 234.773438 421.570312 236.140625 416.902344 237.164062 413.175781 C 237.292969 412.710938 237.417969 412.257812 237.53125 411.828125 C 238.664062 407.621094 240.859375 397.773438 242.082031 391.628906 C 242.511719 389.46875 242.851562 387.78125 242.921875 386.9375 C 243.074219 385.636719 245.386719 380.078125 248.007812 373.6875 C 249.84375 369.199219 251.851562 364.292969 253.316406 360.15625 C 254.277344 357.695312 255.03125 355.164062 255.570312 352.582031 C 255.683594 352.039062 255.683594 351.480469 255.570312 350.941406 C 255.339844 350.0625 255.214844 349.160156 255.199219 348.25 C 255.023438 343.484375 256.445312 335.949219 258.644531 332.789062 C 261.332031 328.941406 263.253906 314.59375 263.253906 314.59375 C 263.253906 314.59375 267.234375 315.171875 267.867188 311.878906 C 267.933594 311.523438 267.957031 311.164062 267.941406 310.804688 C 267.941406 310.515625 267.917969 310.230469 267.875 309.949219 C 267.1875 305.152344 279.183594 300.046875 285.933594 298.945312 C 286.695312 298.816406 287.464844 298.742188 288.238281 298.730469 C 289.878906 298.550781 291.488281 298.179688 293.042969 297.625 C 293.757812 297.402344 294.527344 297.148438 295.347656 296.855469 C 298.175781 295.902344 301.554688 294.640625 305.144531 293.253906 C 318.640625 288.019531 334.976562 280.953125 334.976562 280.953125 C 335.09375 280.40625 335.222656 279.882812 335.371094 279.367188 C 337.007812 272.792969 341.671875 267.390625 347.933594 264.8125 C 347.933594 264.304688 347.933594 263.789062 347.933594 263.273438 C 347.933594 260.621094 347.820312 257.890625 347.703125 255.167969 C 347.703125 254.640625 347.65625 254.109375 347.628906 253.578125 C 347.628906 253.425781 347.628906 253.261719 347.628906 253.109375 C 347.628906 252.953125 347.628906 252.839844 347.628906 252.707031 C 347.628906 252.171875 347.574219 251.632812 347.542969 251.101562 L 347.40625 250.992188 C 346.222656 250.101562 345.210938 249.007812 344.40625 247.765625 C 343.960938 247.039062 343.59375 246.265625 343.316406 245.457031 C 342.355469 242.851562 342.132812 239.945312 341.488281 237.191406 L 341.347656 236.621094 C 340.507812 233.84375 339.480469 231.125 338.273438 228.488281 C 336.578125 224.320312 335.269531 220.027344 333.972656 215.683594 C 333.183594 213.054688 332.386719 210.417969 331.582031 207.777344 L 330.367188 203.75 C 330.136719 202.980469 329.90625 202.210938 329.730469 201.441406 C 329.644531 201.085938 329.578125 200.726562 329.53125 200.367188 C 329.3125 199.1875 329.375 197.972656 329.714844 196.820312 C 330.011719 196.035156 330.351562 195.265625 330.726562 194.515625 C 330.890625 194.171875 331.019531 193.816406 331.113281 193.453125 C 331.136719 193.371094 331.15625 193.289062 331.175781 193.207031 C 331.230469 192.933594 331.257812 192.65625 331.257812 192.375 C 331.230469 191.367188 331.097656 190.367188 330.859375 189.386719 C 330.855469 189.375 330.855469 189.359375 330.859375 189.347656 C 330.851562 189.277344 330.835938 189.207031 330.820312 189.140625 C 330.683594 188.375 330.589844 187.605469 330.542969 186.832031 C 330.273438 182.667969 331.199219 178.515625 333.210938 174.859375 L 333.355469 174.582031 C 333.78125 173.839844 334.253906 173.125 334.769531 172.445312 C 335.007812 172.121094 335.253906 171.816406 335.539062 171.507812 C 334.464844 172.539062 332.695312 172.085938 331.695312 170.976562 C 331.53125 170.804688 331.390625 170.609375 331.273438 170.398438 C 331.207031 170.289062 331.148438 170.171875 331.097656 170.054688 C 331.058594 169.960938 331.027344 169.863281 330.996094 169.761719 C 330.460938 167.878906 331.398438 165.871094 332.625 164.339844 C 333.835938 162.851562 335.339844 161.621094 337.039062 160.726562 C 337.136719 160.667969 337.238281 160.613281 337.34375 160.566406 C 337.996094 160.238281 338.675781 159.964844 339.375 159.75 C 339.785156 159.613281 340.203125 159.5 340.625 159.410156 L 337.773438 159.148438 L 336.621094 159.042969 C 337.796875 154.382812 341.824219 151 346.613281 150.652344 L 347.441406 150.652344 C 347.847656 150.660156 348.25 150.691406 348.648438 150.753906 C 347.339844 150.179688 346.527344 148.851562 346.613281 147.421875 C 348.625 149 351.121094 149.832031 353.675781 149.777344 L 353.96875 149.777344 C 353.835938 148.945312 353.746094 148.105469 353.707031 147.261719 C 353.628906 146.121094 353.628906 144.972656 353.707031 143.832031 C 355.101562 145.15625 357.007812 145.792969 358.917969 145.570312 L 357.316406 143.339844 C 358.742188 144.476562 360.542969 145.039062 362.359375 144.917969 L 362.726562 144.878906 C 363.039062 144.847656 363.34375 144.785156 363.644531 144.703125 L 363.710938 144.703125 C 363.566406 144.515625 363.433594 144.324219 363.304688 144.125 L 363.257812 144.03125 C 362.9375 143.53125 362.679688 142.988281 362.488281 142.425781 C 362.414062 142.207031 362.351562 141.984375 362.304688 141.757812 C 361.96875 140.359375 362.089844 138.890625 362.652344 137.566406 C 365.132812 139.640625 367.855469 142.480469 371.105469 140.332031 C 374.355469 138.1875 374.464844 134.25 379.558594 134.652344 C 382.410156 134.921875 384.886719 136.726562 386.019531 139.355469 C 387.496094 137.691406 389.867188 137.148438 391.914062 138.011719 C 393.929688 138.96875 395.125 141.089844 394.898438 143.308594 C 397.011719 142.777344 399.285156 142.257812 401.3125 143.054688 C 403.34375 143.855469 404.648438 146.445312 403.496094 148.175781 C 403.464844 148.230469 403.429688 148.28125 403.390625 148.332031 C 402.445312 149.554688 400.351562 150.222656 400.578125 151.761719 L 400.898438 151.992188 L 401.898438 152.714844 C 405.816406 155.542969 409.632812 158.515625 413.347656 161.632812 C 415.253906 163.234375 417.285156 165.15625 417.414062 167.65625 C 417.4375 168.269531 417.375 168.882812 417.230469 169.476562 C 417.105469 170.078125 416.9375 170.675781 416.808594 171.277344 C 416.476562 172.804688 416.390625 174.375 416.546875 175.929688 C 416.597656 176.382812 416.667969 176.828125 416.753906 177.28125 C 417.929688 183.226562 422.679688 188.132812 423.148438 194.199219 L 423.148438 194.628906 C 423.175781 195.277344 423.15625 195.929688 423.09375 196.574219 C 422.738281 200.265625 421.035156 203.8125 419.648438 207.339844 C 419.566406 207.554688 419.480469 207.769531 419.40625 207.988281 C 416.738281 214.90625 415.199219 222.28125 414.023438 229.640625 C 413.644531 232.25 413.132812 234.839844 412.488281 237.398438 C 411.785156 240.328125 410.453125 243.066406 408.578125 245.417969 C 407.828125 246.304688 406.957031 247.082031 405.996094 247.726562 C 405.34375 248.140625 404.664062 248.503906 403.957031 248.808594 C 403.957031 248.808594 403.957031 248.808594 403.957031 248.855469 C 404.042969 249.324219 404.113281 249.792969 404.195312 250.261719 C 404.242188 250.507812 404.28125 250.753906 404.328125 251.03125 C 404.324219 251.046875 404.324219 251.0625 404.328125 251.078125 C 404.972656 254.714844 405.710938 258.277344 406.484375 261.660156 L 406.878906 263.34375 C 416.5625 266.84375 417.707031 274.007812 417.773438 276.753906 C 417.800781 277.121094 417.800781 277.488281 417.773438 277.851562 C 417.773438 277.851562 432.375 278.238281 438.140625 282.46875 C 439.21875 283.199219 440.382812 283.792969 441.605469 284.234375 C 443.929688 285.113281 446.304688 285.855469 448.714844 286.457031 C 449.953125 286.78125 451.242188 287.097656 452.558594 287.402344 C 454.863281 287.933594 457.304688 288.449219 459.664062 288.941406 C 465.960938 290.210938 471.882812 291.25 474.890625 292.019531 C 482.058594 293.832031 498.460938 309.566406 498.460938 309.566406 C 498.460938 309.566406 500.378906 325.4375 502.300781 327.75 C 504.222656 330.066406 507.679688 338.199219 507.679688 338.199219 L 520.390625 360.816406 L 525.769531 370.328125 L 529.230469 370.328125 C 529.707031 370.328125 530.644531 371.003906 531.695312 371.941406 C 532.609375 372.757812 533.625 373.773438 534.515625 374.695312 L 535.992188 376.273438 L 536.914062 377.292969 C 536.914062 377.292969 542.5 377.433594 544.015625 381.855469 C 548.566406 381.722656 554.152344 382.023438 558.0625 383.777344 C 558.597656 384.011719 559.109375 384.289062 559.601562 384.605469 C 561.222656 385.546875 562.375 387.128906 562.773438 388.960938 C 562.851562 389.324219 562.898438 389.695312 562.914062 390.066406 C 562.914062 390.503906 562.914062 390.945312 562.914062 391.375 C 562.636719 397.195312 558.847656 402.039062 555.367188 405.300781 L 555.613281 405.738281 C 555.613281 405.738281 555.496094 406.015625 555.273438 406.507812 C 555.210938 406.652344 555.136719 406.816406 555.050781 407 C 554.597656 407.96875 553.875 409.421875 552.929688 411.121094 C 550.925781 414.800781 548.453125 418.203125 545.574219 421.246094 L 545.351562 421.480469 L 500.980469 421.886719 L 500.847656 421.730469 L 492.242188 411.460938 L 487.960938 406.351562 L 487.832031 406.191406 L 487.707031 407.414062 L 487.292969 411.488281 L 486.292969 421.339844 L 486.238281 421.832031 L 486.238281 421.964844 L 486.125 423.101562 L 486.210938 421.964844 L 485.988281 421.964844 L 403.757812 422.730469 L 268.796875 424.222656 L 268.796875 424.871094 L 268.6875 424.871094 L 268.6875 424.222656 L 234.296875 424.59375 Z M 233.929688 424.601562 "/>
<path style=" stroke:none;fill-rule:nonzero;fill:rgb(98.431373%,74.509804%,74.509804%);fill-opacity:1;" d="M 413.910156 290.019531 C 413.910156 290.019531 337.445312 299.246094 344.746094 290.019531 C 347.390625 286.679688 348.117188 276.792969 347.972656 265.527344 C 347.925781 262.105469 347.804688 258.558594 347.628906 255.03125 C 346.78125 238.113281 344.746094 221.582031 344.746094 221.582031 C 344.746094 221.582031 411.605469 190.054688 403.917969 215.046875 C 400.84375 225.140625 401.851562 239.320312 404.1875 252.632812 C 404.871094 256.515625 405.664062 260.320312 406.492188 263.933594 C 408.519531 272.75 410.996094 281.457031 413.910156 290.019531 Z M 413.910156 290.019531 "/>
<use xlink:href="#surface54" mask="url(#mask16)"/>
<path style=" stroke:none;fill-rule:nonzero;fill:rgb(42.352941%,38.823529%,100%);fill-opacity:1;" d="M 268.773438 424.871094 L 268.773438 424.222656 L 403.734375 422.753906 L 485.964844 421.984375 L 486.195312 421.984375 L 486.109375 423.125 L 486.226562 421.984375 L 486.371094 421.984375 L 486.371094 421.855469 L 487.421875 411.511719 L 487.824219 407.597656 L 487.945312 406.375 L 488.054688 405.355469 L 492.804688 389.503906 L 497.550781 373.679688 L 501.546875 360.355469 L 507.648438 339.992188 C 507.648438 339.992188 504.191406 331.917969 502.269531 329.613281 C 500.351562 327.304688 498.429688 311.542969 498.429688 311.542969 C 498.429688 311.542969 482.027344 295.910156 474.859375 294.109375 C 471.855469 293.339844 465.921875 292.316406 459.621094 291.035156 C 457.261719 290.554688 454.839844 290.050781 452.511719 289.496094 C 451.195312 289.195312 449.90625 288.878906 448.667969 288.566406 C 446.261719 287.964844 443.886719 287.230469 441.558594 286.367188 C 440.339844 285.921875 439.179688 285.332031 438.101562 284.605469 C 432.453125 280.460938 418.296875 279.992188 417.753906 279.992188 C 417.75 279.972656 417.75 279.957031 417.753906 279.9375 L 417.753906 279.867188 C 417.773438 279.546875 417.773438 279.222656 417.753906 278.898438 C 417.753906 278.589844 417.753906 278.230469 417.683594 277.824219 C 417.683594 277.699219 417.683594 277.570312 417.628906 277.4375 C 417.589844 277.160156 417.542969 276.871094 417.476562 276.5625 C 417.453125 276.425781 417.421875 276.289062 417.382812 276.152344 C 417.160156 275.226562 416.839844 274.328125 416.421875 273.46875 C 416.367188 273.347656 416.300781 273.214844 416.238281 273.09375 C 415.863281 272.382812 415.425781 271.707031 414.933594 271.070312 C 414.832031 270.941406 414.722656 270.800781 414.609375 270.671875 C 413.980469 269.929688 413.28125 269.25 412.519531 268.640625 C 412.3125 268.480469 412.097656 268.3125 411.875 268.15625 C 411.75 268.054688 411.617188 267.964844 411.480469 267.878906 L 410.796875 267.433594 L 410.160156 267.066406 C 409.597656 266.757812 409.007812 266.457031 408.359375 266.171875 C 408.160156 266.082031 407.945312 265.996094 407.730469 265.910156 C 407.515625 265.828125 407.175781 265.695312 406.894531 265.589844 L 406.847656 265.589844 L 406.269531 265.359375 C 405.832031 265.210938 405.386719 265.082031 404.917969 264.949219 L 404.203125 264.765625 L 403.433594 264.589844 L 402.667969 264.425781 C 401.898438 264.273438 401.074219 264.136719 400.214844 264.027344 L 399.339844 263.921875 L 398.441406 263.828125 L 397.511719 263.75 L 396.1875 263.675781 L 394.652344 263.621094 C 387.871094 263.621094 381.113281 264.339844 374.484375 265.765625 C 369.882812 264.742188 365.167969 264.304688 360.453125 264.472656 L 359.785156 264.472656 L 359.015625 264.519531 L 358.523438 264.519531 L 357.53125 264.613281 C 357.203125 264.613281 356.863281 264.679688 356.535156 264.726562 C 356.203125 264.773438 355.859375 264.8125 355.527344 264.867188 L 355.019531 264.949219 C 354.519531 265.035156 354.011719 265.128906 353.484375 265.234375 C 353.3125 265.265625 353.144531 265.304688 352.976562 265.351562 C 352.308594 265.496094 351.640625 265.671875 350.976562 265.875 C 350.648438 265.964844 350.316406 266.074219 349.988281 266.1875 C 349.816406 266.234375 349.65625 266.296875 349.496094 266.359375 L 349.003906 266.535156 L 348.519531 266.726562 L 347.941406 266.957031 C 347.648438 267.082031 347.367188 267.210938 347.082031 267.347656 C 346.921875 267.417969 346.757812 267.496094 346.605469 267.582031 C 346.453125 267.664062 346.289062 267.734375 346.144531 267.820312 C 344.40625 268.71875 342.800781 269.851562 341.371094 271.1875 L 340.980469 271.5625 L 340.59375 271.957031 C 340.464844 272.085938 340.34375 272.226562 340.21875 272.363281 C 339.71875 272.910156 339.25 273.488281 338.820312 274.09375 C 338.699219 274.253906 338.582031 274.417969 338.46875 274.585938 C 337.980469 275.304688 337.539062 276.054688 337.144531 276.832031 C 337.046875 277.015625 336.953125 277.207031 336.859375 277.390625 C 336.234375 278.691406 335.71875 280.042969 335.324219 281.429688 C 335.179688 281.941406 335.050781 282.453125 334.933594 282.96875 C 334.753906 283.734375 318.664062 290.148438 305.167969 295.347656 C 301.578125 296.730469 298.199219 297.984375 295.371094 298.929688 C 294.546875 299.207031 293.777344 299.460938 293.0625 299.699219 C 291.511719 300.261719 289.902344 300.632812 288.261719 300.808594 C 287.488281 300.820312 286.71875 300.890625 285.957031 301.023438 C 279.753906 302.03125 269.125 306.40625 267.964844 310.796875 C 267.871094 311.144531 267.84375 311.511719 267.886719 311.871094 C 267.886719 311.871094 267.886719 311.925781 267.886719 311.957031 C 268.65625 317.339844 263.277344 316.570312 263.277344 316.570312 C 263.277344 316.570312 261.355469 330.796875 258.667969 334.640625 C 256.722656 337.410156 255.394531 343.582031 255.222656 348.242188 C 255.128906 349.695312 255.242188 351.152344 255.5625 352.574219 C 255.5625 352.609375 255.5625 352.648438 255.5625 352.679688 C 255.871094 353.710938 255.132812 356.523438 253.878906 360.132812 C 252.519531 364.089844 250.535156 369.011719 248.628906 373.65625 C 245.757812 380.671875 243.050781 387.039062 242.882812 388.4375 C 242.8125 389.058594 242.613281 390.175781 242.335938 391.613281 C 241.214844 397.472656 238.722656 408.628906 237.496094 413.144531 C 236.582031 416.511719 235.25 421.125 234.335938 424.292969 C 234.335938 424.386719 234.28125 424.476562 234.257812 424.5625 L 268.710938 424.222656 L 268.710938 424.871094 L 268.820312 424.871094 Z M 268.773438 424.871094 "/>
<use xlink:href="#surface57" mask="url(#mask17)"/>
<use xlink:href="#surface60" mask="url(#mask18)"/>
<use xlink:href="#surface63" mask="url(#mask19)"/>
<path style=" stroke:none;fill-rule:nonzero;fill:rgb(42.352941%,38.823529%,100%);fill-opacity:1;" d="M 417.796875 278.929688 C 395.511719 283.035156 353.550781 282.152344 335.414062 281.527344 C 342.0625 257.691406 374.476562 265.796875 374.476562 265.796875 C 414.601562 257.785156 417.675781 274.410156 417.796875 278.929688 Z M 417.796875 278.929688 "/>
<path style=" stroke:none;fill-rule:nonzero;fill:rgb(98.431373%,74.509804%,74.509804%);fill-opacity:1;" d="M 536.101562 384.023438 C 536.101562 384.023438 562.351562 379.984375 562.867188 391.519531 C 563.382812 403.054688 549.480469 411.113281 549.480469 411.113281 Z M 536.101562 384.023438 "/>
<use xlink:href="#surface66" mask="url(#mask20)"/>
<path style=" stroke:none;fill-rule:nonzero;fill:rgb(24.705882%,23.921569%,33.72549%);fill-opacity:1;" d="M 363.636719 147.585938 C 361.410156 148.171875 359.039062 147.675781 357.242188 146.238281 L 358.839844 148.460938 C 356.933594 148.683594 355.027344 148.046875 353.628906 146.730469 C 353.484375 148.722656 353.566406 150.71875 353.875 152.691406 C 351.230469 152.820312 348.625 152 346.527344 150.382812 C 346.445312 151.804688 347.253906 153.128906 348.558594 153.699219 C 343.0625 153.042969 337.929688 156.566406 336.570312 161.933594 L 340.582031 162.304688 C 337.425781 162.976562 334.597656 164.703125 332.558594 167.199219 C 331.328125 168.738281 330.390625 170.707031 330.929688 172.582031 C 331.464844 174.460938 334.0625 175.660156 335.476562 174.320312 C 331.40625 179.183594 329.691406 185.597656 330.789062 191.847656 C 331.15625 193.160156 331.273438 194.53125 331.144531 195.890625 C 330.890625 197.160156 330.089844 198.257812 329.691406 199.496094 C 328.921875 201.742188 329.652344 204.179688 330.335938 206.417969 L 333.941406 218.273438 C 335.246094 222.558594 336.546875 226.847656 338.25 230.992188 C 339.460938 233.613281 340.488281 236.3125 341.324219 239.074219 C 342.292969 242.796875 342.332031 246.871094 344.398438 250.125 C 345.816406 252.171875 347.710938 253.84375 349.917969 254.992188 C 357.519531 259.34375 366.703125 260.265625 375.402344 259.222656 C 384.101562 258.175781 392.445312 255.292969 400.722656 252.433594 C 402.5625 251.878906 404.324219 251.101562 405.980469 250.125 C 411.703125 246.371094 412.980469 238.699219 414.046875 231.9375 C 415.238281 224.402344 416.828125 216.882812 419.648438 209.792969 C 421.324219 205.570312 423.492188 201.289062 423.125 196.765625 C 422.65625 190.761719 417.90625 185.894531 416.730469 179.988281 C 416.335938 178.015625 416.355469 175.980469 416.785156 174.015625 C 417.148438 172.84375 417.351562 171.625 417.390625 170.398438 C 417.261719 167.925781 415.230469 166.015625 413.324219 164.425781 C 409.191406 160.96875 404.921875 157.703125 400.523438 154.628906 C 400.300781 153.089844 402.390625 152.429688 403.335938 151.214844 C 404.671875 149.5 403.289062 146.777344 401.261719 145.976562 C 399.230469 145.179688 396.957031 145.703125 394.84375 146.230469 C 395.125 144.007812 393.917969 141.863281 391.867188 140.957031 C 389.820312 140.050781 387.421875 140.597656 385.96875 142.300781 C 384.824219 139.679688 382.34375 137.886719 379.496094 137.628906 C 374.402344 137.226562 374.300781 141.125 371.042969 143.269531 C 367.785156 145.417969 365.09375 142.585938 362.589844 140.527344 C 361.652344 142.898438 362.050781 145.589844 363.636719 147.585938 Z M 363.636719 147.585938 "/>
<path style=" stroke:none;fill-rule:nonzero;fill:rgb(42.352941%,38.823529%,100%);fill-opacity:1;" d="M 555.566406 407.089844 C 555.566406 407.089844 554.882812 408.722656 553.621094 411.082031 C 551.714844 414.714844 549.394531 418.113281 546.707031 421.210938 L 546.496094 421.433594 L 545.253906 421.433594 L 500.878906 421.839844 L 499.820312 421.839844 L 499.6875 421.6875 L 491.082031 411.464844 L 487.839844 407.613281 L 487.707031 407.453125 L 487.429688 407.128906 L 487.277344 406.945312 L 487.078125 406.707031 L 480.769531 399.21875 L 483.074219 389.605469 L 487 373.410156 L 487.101562 373.019531 L 487.871094 369.941406 L 488.414062 367.636719 L 490.242188 360.117188 L 496.515625 334.242188 L 507.65625 340.007812 L 519.410156 360.769531 L 525.71875 371.917969 L 529.175781 371.917969 C 529.828125 371.917969 531.328125 373.179688 532.832031 374.632812 C 533.371094 375.148438 533.910156 375.695312 534.371094 376.171875 C 535.738281 377.585938 536.824219 378.800781 536.824219 378.800781 C 536.824219 378.800781 542.425781 378.925781 543.929688 383.339844 C 544.007812 383.550781 544.074219 383.769531 544.121094 383.992188 C 544.621094 385.726562 545.273438 387.414062 546.066406 389.035156 C 547.058594 391.195312 548.304688 393.648438 549.5625 396.101562 C 551.90625 400.601562 554.289062 404.882812 555.167969 406.4375 L 555.273438 406.628906 Z M 555.566406 407.089844 "/>
<use xlink:href="#surface69" mask="url(#mask21)"/>
<path style=" stroke:none;fill-rule:nonzero;fill:rgb(24.705882%,23.921569%,33.72549%);fill-opacity:1;" d="M 268.773438 424.871094 L 268.773438 424.222656 L 403.734375 422.753906 L 485.964844 421.984375 L 486.195312 421.984375 L 486.195312 421.855469 L 486.960938 411.519531 L 487.292969 406.90625 L 488.554688 389.519531 L 489.542969 375.757812 L 489.542969 375.417969 C 489.589844 374.785156 489.5625 374.148438 489.460938 373.519531 C 489.464844 373.492188 489.464844 373.46875 489.460938 373.441406 C 489.25 372.144531 488.722656 370.917969 487.921875 369.875 C 486.203125 367.667969 483.464844 366.503906 480.683594 366.796875 C 471.378906 367.75 461.980469 368.511719 452.574219 369.105469 C 451.289062 369.199219 450.003906 369.273438 448.730469 369.34375 C 388.066406 372.949219 327.945312 370.027344 295.414062 367.804688 L 293.109375 367.636719 C 287.476562 367.238281 282.765625 366.867188 279.140625 366.550781 C 275.007812 366.203125 271.277344 369.035156 270.5 373.113281 C 270.425781 373.527344 270.378906 373.949219 270.363281 374.371094 L 269.839844 391.414062 L 269.125 412.996094 L 268.789062 424.039062 L 268.789062 424.902344 Z M 268.773438 424.871094 "/>
<use xlink:href="#surface72" mask="url(#mask22)"/>
<use xlink:href="#surface75" mask="url(#mask23)"/>
<path style=" stroke:none;fill-rule:nonzero;fill:rgb(24.705882%,23.921569%,33.72549%);fill-opacity:1;" d="M 229.472656 396.449219 L 189.316406 397.21875 L 189.316406 390.550781 L 229.472656 389.78125 Z M 229.472656 396.449219 "/>
<use xlink:href="#surface78" mask="url(#mask24)"/>
<path style=" stroke:none;fill-rule:nonzero;fill:rgb(24.705882%,23.921569%,33.72549%);fill-opacity:1;" d="M 231.007812 396.449219 L 190.855469 397.21875 L 190.855469 390.550781 L 231.007812 389.78125 Z M 231.007812 396.449219 "/>
<use xlink:href="#surface81" mask="url(#mask25)"/>
<use xlink:href="#surface84" mask="url(#mask26)"/>
<use xlink:href="#surface87" mask="url(#mask27)"/>
<path style="fill:none;stroke-width:2;stroke-linecap:butt;stroke-linejoin:miter;stroke:rgb(42.352941%,38.823529%,100%);stroke-opacity:1;stroke-miterlimit:10;" d="M 198.98959 342.861667 L 300.598916 341.860915 " transform="matrix(0.768492,0,0,0.768953,0,0)"/>
<path style="fill:none;stroke-width:2;stroke-linecap:butt;stroke-linejoin:miter;stroke:rgb(42.352941%,38.823529%,100%);stroke-opacity:1;stroke-miterlimit:10;" d="M 198.98959 355.327887 L 300.598916 354.342375 " transform="matrix(0.768492,0,0,0.768953,0,0)"/>
<path style="fill:none;stroke-width:2;stroke-linecap:butt;stroke-linejoin:miter;stroke:rgb(42.352941%,38.823529%,100%);stroke-opacity:1;stroke-miterlimit:10;" d="M 198.98959 367.809346 L 300.598916 366.808594 " transform="matrix(0.768492,0,0,0.768953,0,0)"/>
</g>
</svg>
