<?xml version="1.0" encoding="UTF-8"?>
<svg xmlns="http://www.w3.org/2000/svg" xmlns:xlink="http://www.w3.org/1999/xlink" width="499pt" height="266pt" viewBox="0 0 499 266" version="1.1">
<defs>
<filter id="alpha" filterUnits="objectBoundingBox" x="0%" y="0%" width="100%" height="100%">
  <feColorMatrix type="matrix" in="SourceGraphic" values="0 0 0 0 1 0 0 0 0 1 0 0 0 0 1 0 0 0 1 0"/>
</filter>
<mask id="mask0">
  <g filter="url(#alpha)">
<rect x="0" y="0" width="499" height="266" style="fill:rgb(0%,0%,0%);fill-opacity:0.101961;stroke:none;"/>
  </g>
</mask>
<clipPath id="clip1">
  <rect x="0" y="0" width="499" height="266"/>
</clipPath>
<g id="surface5" clip-path="url(#clip1)">
<path style=" stroke:none;fill-rule:nonzero;fill:rgb(42.352941%,38.823529%,100%);fill-opacity:1;" d="M 460.882812 210.402344 C 460.328125 211.605469 459.773438 212.789062 459.21875 213.957031 C 458.355469 215.773438 457.503906 217.550781 456.664062 219.296875 C 456.289062 220.070312 455.917969 220.828125 455.550781 221.585938 C 451.429688 230.023438 447.582031 237.484375 444.3125 243.621094 C 438.269531 254.945312 426.542969 262.070312 413.722656 262.203125 L 341.03125 262.996094 L 340.265625 262.996094 L 334.03125 263.0625 L 328.703125 263.117188 L 312.355469 263.296875 L 311.695312 263.296875 L 303.375 263.386719 L 303.121094 263.386719 L 251.828125 263.945312 L 206.046875 264.425781 L 200.722656 264.484375 L 167.648438 264.84375 L 167.609375 264.84375 L 146.15625 265.074219 L 145.925781 265.074219 L 78.101562 265.808594 L 57.808594 266.027344 C 53.480469 266.078125 49.167969 265.460938 45.023438 264.195312 C 37.816406 262.011719 31.339844 257.90625 26.289062 252.3125 C 17.574219 242.695312 11.222656 231.472656 6.957031 219.296875 C 6.339844 217.539062 5.761719 215.757812 5.230469 213.957031 C -9.539062 163.949219 8.464844 99.433594 40.867188 56.257812 C 42.226562 54.453125 43.609375 52.691406 45.011719 50.976562 L 45.042969 50.9375 C 55.011719 38.683594 66.183594 28.449219 78.085938 21.167969 C 99.175781 8.25 122.546875 4.609375 145.53125 15.457031 C 164.976562 24.636719 183.132812 28.953125 200.734375 30.125 C 202.515625 30.238281 204.292969 30.324219 206.0625 30.378906 C 246.4375 31.652344 284.277344 17.078125 328.710938 7.671875 C 330.480469 7.296875 332.253906 6.929688 334.042969 6.578125 C 365.742188 0.257812 400.90625 -3.074219 442.726562 3.933594 C 447.070312 4.644531 451.355469 5.671875 455.550781 7.003906 C 457.394531 7.601562 459.171875 8.242188 460.882812 8.925781 C 480.84375 17.058594 491.726562 32.089844 496.355469 50.917969 C 496.792969 52.667969 497.171875 54.445312 497.488281 56.253906 C 505.691406 101.550781 481.671875 165.804688 460.882812 210.402344 Z M 460.882812 210.402344 "/>
</g>
<mask id="mask1">
  <g filter="url(#alpha)">
<rect x="0" y="0" width="499" height="266" style="fill:rgb(0%,0%,0%);fill-opacity:0.101961;stroke:none;"/>
  </g>
</mask>
<clipPath id="clip2">
  <rect x="0" y="0" width="499" height="266"/>
</clipPath>
<g id="surface8" clip-path="url(#clip2)">
<path style=" stroke:none;fill-rule:nonzero;fill:rgb(42.352941%,38.823529%,100%);fill-opacity:1;" d="M 78.085938 21.167969 L 78.085938 265.859375 L 57.792969 266.082031 C 53.464844 266.128906 49.152344 265.511719 45.011719 264.246094 L 45.011719 50.9375 L 45.042969 50.9375 C 55.011719 38.671875 66.183594 28.433594 78.085938 21.167969 Z M 78.085938 21.167969 "/>
<path style=" stroke:none;fill-rule:nonzero;fill:rgb(42.352941%,38.823529%,100%);fill-opacity:1;" d="M 497.515625 56.257812 L 40.867188 56.257812 C 42.226562 54.453125 43.609375 52.691406 45.011719 50.976562 L 45.011719 50.9375 L 496.378906 50.9375 C 496.816406 52.675781 497.195312 54.449219 497.515625 56.257812 Z M 497.515625 56.257812 "/>
<path style=" stroke:none;fill-rule:nonzero;fill:rgb(42.352941%,38.823529%,100%);fill-opacity:1;" d="M 460.882812 8.929688 L 460.882812 213.953125 L 459.21875 213.953125 C 458.355469 215.765625 457.503906 217.546875 456.664062 219.292969 C 456.289062 220.066406 455.917969 220.824219 455.550781 221.582031 L 455.550781 6.992188 C 457.394531 7.585938 459.171875 8.234375 460.882812 8.929688 Z M 460.882812 8.929688 "/>
<path style=" stroke:none;fill-rule:nonzero;fill:rgb(42.352941%,38.823529%,100%);fill-opacity:1;" d="M 334.042969 6.5625 L 334.042969 263.082031 L 328.710938 263.136719 L 328.710938 7.660156 C 330.480469 7.285156 332.253906 6.914062 334.042969 6.5625 Z M 334.042969 6.5625 "/>
<path style=" stroke:none;fill-rule:nonzero;fill:rgb(42.352941%,38.823529%,100%);fill-opacity:1;" d="M 206.0625 30.363281 L 206.0625 264.472656 L 200.734375 264.53125 L 200.734375 30.109375 C 202.515625 30.226562 204.292969 30.292969 206.0625 30.363281 Z M 206.0625 30.363281 "/>
<path style=" stroke:none;fill-rule:nonzero;fill:rgb(42.352941%,38.823529%,100%);fill-opacity:1;" d="M 459.21875 213.957031 C 458.355469 215.773438 457.503906 217.550781 456.664062 219.296875 L 6.957031 219.296875 C 6.339844 217.539062 5.761719 215.757812 5.230469 213.957031 Z M 459.21875 213.957031 "/>
</g>
<mask id="mask2">
  <g filter="url(#alpha)">
<rect x="0" y="0" width="499" height="266" style="fill:rgb(0%,0%,0%);fill-opacity:0.2;stroke:none;"/>
  </g>
</mask>
<clipPath id="clip3">
  <rect x="0" y="0" width="499" height="266"/>
</clipPath>
<g id="surface11" clip-path="url(#clip3)">
<path style=" stroke:none;fill-rule:nonzero;fill:rgb(0%,0%,0%);fill-opacity:1;" d="M 413.722656 256.230469 L 413.722656 262.472656 L 340.902344 263.144531 L 340.125 263.15625 L 312.449219 263.410156 L 311.785156 263.421875 L 303.375 263.492188 L 303.125 263.492188 L 251.84375 263.96875 L 167.664062 264.75 L 167.59375 264.75 L 146.191406 264.953125 L 145.960938 264.957031 L 50.859375 265.832031 L 50.859375 258.628906 L 73.21875 245.1875 L 118.085938 244.8125 L 119.046875 244.804688 L 119.363281 244.800781 L 120.320312 244.789062 L 141.863281 244.609375 L 142.824219 244.605469 L 143.132812 244.601562 L 144.089844 244.59375 L 151 244.539062 L 151.179688 244.53125 L 168.222656 244.390625 L 168.359375 244.390625 L 301.332031 243.265625 L 304.585938 243.242188 L 304.914062 243.242188 L 307.394531 243.21875 L 325.441406 243.066406 L 326.402344 243.054688 L 327.289062 243.042969 L 327.75 243.042969 L 333.363281 243 L 334.472656 242.988281 L 335.964844 242.976562 L 340.636719 242.933594 L 348.054688 242.871094 L 349.011719 242.863281 L 350.679688 242.851562 L 350.992188 242.851562 L 386.804688 242.546875 Z M 413.722656 256.230469 "/>
</g>
<mask id="mask3">
  <g filter="url(#alpha)">
<rect x="0" y="0" width="499" height="266" style="fill:rgb(0%,0%,0%);fill-opacity:0.101961;stroke:none;"/>
  </g>
</mask>
<clipPath id="clip4">
  <rect x="0" y="0" width="499" height="266"/>
</clipPath>
<g id="surface14" clip-path="url(#clip4)">
<path style=" stroke:none;fill-rule:nonzero;fill:rgb(0%,0%,0%);fill-opacity:1;" d="M 141.933594 232.226562 L 141.933594 243.984375 C 141.933594 245.121094 141.28125 246.15625 140.257812 246.644531 C 139.882812 246.828125 139.472656 246.925781 139.058594 246.933594 L 122.328125 247.289062 C 121.882812 247.300781 121.4375 247.207031 121.035156 247.015625 C 119.992188 246.535156 119.324219 245.492188 119.324219 244.339844 L 119.324219 232.226562 Z M 141.933594 232.226562 "/>
</g>
<mask id="mask4">
  <g filter="url(#alpha)">
<rect x="0" y="0" width="499" height="266" style="fill:rgb(0%,0%,0%);fill-opacity:0.101961;stroke:none;"/>
  </g>
</mask>
<clipPath id="clip5">
  <rect x="0" y="0" width="499" height="266"/>
</clipPath>
<g id="surface17" clip-path="url(#clip5)">
<path style=" stroke:none;fill-rule:nonzero;fill:rgb(0%,0%,0%);fill-opacity:1;" d="M 326.402344 232.226562 L 349.011719 232.226562 L 349.011719 247.351562 L 326.402344 247.351562 Z M 326.402344 232.226562 "/>
</g>
<mask id="mask5">
  <g filter="url(#alpha)">
<rect x="0" y="0" width="499" height="266" style="fill:rgb(0%,0%,0%);fill-opacity:0.101961;stroke:none;"/>
  </g>
</mask>
<clipPath id="clip6">
  <rect x="0" y="0" width="499" height="266"/>
</clipPath>
<g id="surface20" clip-path="url(#clip6)">
<path style=" stroke:none;fill-rule:nonzero;fill:rgb(0%,0%,0%);fill-opacity:1;" d="M 110.539062 127.632812 L 110.539062 130.382812 L 101.429688 130.148438 L 101.429688 127.632812 Z M 110.539062 127.632812 "/>
</g>
<mask id="mask6">
  <g filter="url(#alpha)">
<rect x="0" y="0" width="499" height="266" style="fill:rgb(0%,0%,0%);fill-opacity:0.101961;stroke:none;"/>
  </g>
</mask>
<clipPath id="clip7">
  <rect x="0" y="0" width="499" height="266"/>
</clipPath>
<g id="surface23" clip-path="url(#clip7)">
<path style=" stroke:none;fill-rule:nonzero;fill:rgb(0%,0%,0%);fill-opacity:1;" d="M 355.640625 126.191406 L 355.640625 128.011719 L 346.535156 128.199219 L 346.535156 126.191406 Z M 355.640625 126.191406 "/>
</g>
<mask id="mask7">
  <g filter="url(#alpha)">
<rect x="0" y="0" width="499" height="266" style="fill:rgb(0%,0%,0%);fill-opacity:0.101961;stroke:none;"/>
  </g>
</mask>
<clipPath id="clip8">
  <rect x="0" y="0" width="499" height="266"/>
</clipPath>
<g id="surface26" clip-path="url(#clip8)">
<path style=" stroke:none;fill-rule:nonzero;fill:rgb(0%,0%,0%);fill-opacity:1;" d="M 396.734375 124.65625 C 396.761719 125.058594 396.625 125.453125 396.351562 125.75 C 396.082031 126.046875 395.699219 126.21875 395.296875 126.230469 L 386.804688 40.375 L 387.761719 40.328125 C 388.554688 40.285156 389.238281 40.878906 389.304688 41.671875 Z M 396.734375 124.65625 "/>
</g>
<mask id="mask8">
  <g filter="url(#alpha)">
<rect x="0" y="0" width="499" height="266" style="fill:rgb(0%,0%,0%);fill-opacity:0.101961;stroke:none;"/>
  </g>
</mask>
<clipPath id="clip9">
  <rect x="0" y="0" width="499" height="266"/>
</clipPath>
<g id="surface29" clip-path="url(#clip9)">
<path style=" stroke:none;fill-rule:nonzero;fill:rgb(0%,0%,0%);fill-opacity:1;" d="M 80.640625 41.816406 L 69.820312 128.375 L 68.160156 128.332031 C 67.574219 128.320312 67.019531 128.054688 66.640625 127.609375 C 66.257812 127.164062 66.085938 126.578125 66.164062 125.996094 L 78.449219 43.5625 C 78.613281 42.496094 79.566406 41.734375 80.640625 41.816406 Z M 80.640625 41.816406 "/>
</g>
<mask id="mask9">
  <g filter="url(#alpha)">
<rect x="0" y="0" width="499" height="266" style="fill:rgb(0%,0%,0%);fill-opacity:0.101961;stroke:none;"/>
  </g>
</mask>
<clipPath id="clip10">
  <rect x="0" y="0" width="499" height="266"/>
</clipPath>
<g id="surface32" clip-path="url(#clip10)">
<path style=" stroke:none;fill-rule:nonzero;fill:rgb(0%,0%,0%);fill-opacity:1;" d="M 101.429688 147.121094 L 110.539062 147.121094 L 110.539062 155.320312 L 101.429688 155.320312 Z M 101.429688 147.121094 "/>
</g>
<mask id="mask10">
  <g filter="url(#alpha)">
<rect x="0" y="0" width="499" height="266" style="fill:rgb(0%,0%,0%);fill-opacity:0.101961;stroke:none;"/>
  </g>
</mask>
<clipPath id="clip11">
  <rect x="0" y="0" width="499" height="266"/>
</clipPath>
<g id="surface35" clip-path="url(#clip11)">
<path style=" stroke:none;fill-rule:nonzero;fill:rgb(0%,0%,0%);fill-opacity:1;" d="M 142.894531 232.222656 L 142.894531 234.609375 L 120.28125 235.214844 L 120.28125 232.222656 Z M 142.894531 232.222656 "/>
</g>
<mask id="mask11">
  <g filter="url(#alpha)">
<rect x="0" y="0" width="499" height="266" style="fill:rgb(0%,0%,0%);fill-opacity:0.101961;stroke:none;"/>
  </g>
</mask>
<clipPath id="clip12">
  <rect x="0" y="0" width="499" height="266"/>
</clipPath>
<g id="surface38" clip-path="url(#clip12)">
<path style=" stroke:none;fill-rule:nonzero;fill:rgb(0%,0%,0%);fill-opacity:1;" d="M 89.085938 148.082031 L 89.085938 235.082031 L 89.0625 235.082031 C 88.023438 235.070312 87.183594 234.230469 87.167969 233.1875 L 87.167969 149.976562 C 87.183594 148.9375 88.023438 148.09375 89.0625 148.082031 Z M 89.085938 148.082031 "/>
</g>
<mask id="mask12">
  <g filter="url(#alpha)">
<rect x="0" y="0" width="499" height="266" style="fill:rgb(0%,0%,0%);fill-opacity:0.101961;stroke:none;"/>
  </g>
</mask>
<clipPath id="clip13">
  <rect x="0" y="0" width="499" height="266"/>
</clipPath>
<g id="surface41" clip-path="url(#clip13)">
<path style=" stroke:none;fill-rule:nonzero;fill:rgb(0%,0%,0%);fill-opacity:1;" d="M 346.535156 147.121094 L 355.640625 147.121094 L 355.640625 155.484375 L 346.535156 155.484375 Z M 346.535156 147.121094 "/>
</g>
<mask id="mask13">
  <g filter="url(#alpha)">
<rect x="0" y="0" width="499" height="266" style="fill:rgb(0%,0%,0%);fill-opacity:0.101961;stroke:none;"/>
  </g>
</mask>
<clipPath id="clip14">
  <rect x="0" y="0" width="499" height="266"/>
</clipPath>
<g id="surface44" clip-path="url(#clip14)">
<path style=" stroke:none;fill-rule:nonzero;fill:rgb(0%,0%,0%);fill-opacity:1;" d="M 348.054688 232.222656 L 348.054688 235.300781 L 325.441406 234.695312 L 325.441406 232.222656 Z M 348.054688 232.222656 "/>
</g>
<mask id="mask14">
  <g filter="url(#alpha)">
<rect x="0" y="0" width="499" height="266" style="fill:rgb(0%,0%,0%);fill-opacity:0.101961;stroke:none;"/>
  </g>
</mask>
<clipPath id="clip15">
  <rect x="0" y="0" width="499" height="266"/>
</clipPath>
<g id="surface47" clip-path="url(#clip15)">
<path style=" stroke:none;fill-rule:nonzero;fill:rgb(0%,0%,0%);fill-opacity:1;" d="M 377.894531 149.976562 L 377.894531 233.1875 C 377.878906 234.238281 377.023438 235.082031 375.976562 235.082031 L 375.976562 148.082031 C 377.023438 148.082031 377.878906 148.925781 377.894531 149.976562 Z M 377.894531 149.976562 "/>
</g>
<mask id="mask15">
  <g filter="url(#alpha)">
<rect x="0" y="0" width="499" height="266" style="fill:rgb(0%,0%,0%);fill-opacity:0.101961;stroke:none;"/>
  </g>
</mask>
<clipPath id="clip16">
  <rect x="0" y="0" width="499" height="266"/>
</clipPath>
<g id="surface50" clip-path="url(#clip16)">
<path style=" stroke:none;fill-rule:nonzero;fill:rgb(0%,0%,0%);fill-opacity:1;" d="M 413.722656 256.230469 L 413.722656 262.472656 L 340.902344 263.144531 L 340.125 263.15625 L 312.449219 263.410156 L 311.785156 263.421875 L 303.375 263.492188 L 303.125 263.492188 L 251.84375 263.96875 L 167.664062 264.75 L 167.59375 264.75 L 146.191406 264.953125 L 145.960938 264.957031 L 50.859375 265.832031 L 50.859375 258.628906 L 147.929688 257.992188 L 148.160156 257.992188 L 167.808594 257.855469 L 167.902344 257.855469 L 303.59375 256.957031 L 303.734375 256.957031 L 303.816406 256.953125 L 304.039062 256.953125 L 306.335938 256.941406 L 307.035156 256.941406 L 342.742188 256.699219 L 344.851562 256.691406 L 345.320312 256.683594 Z M 413.722656 256.230469 "/>
</g>
<linearGradient id="linear0" gradientUnits="userSpaceOnUse" x1="597.75" y1="725.44" x2="597.75" y2="347.69" gradientTransform="matrix(0.479347,0,0,0.480144,-38.031374,-83.021769)">
<stop offset="0" style="stop-color:rgb(50.196078%,50.196078%,50.196078%);stop-opacity:0.25098;"/>
<stop offset="0.54" style="stop-color:rgb(50.196078%,50.196078%,50.196078%);stop-opacity:0.121569;"/>
<stop offset="1" style="stop-color:rgb(50.196078%,50.196078%,50.196078%);stop-opacity:0.101961;"/>
</linearGradient>
<mask id="mask16">
  <g filter="url(#alpha)">
<rect x="0" y="0" width="499" height="266" style="fill:rgb(0%,0%,0%);fill-opacity:0.101961;stroke:none;"/>
  </g>
</mask>
<clipPath id="clip17">
  <rect x="0" y="0" width="499" height="266"/>
</clipPath>
<g id="surface53" clip-path="url(#clip17)">
<path style=" stroke:none;fill-rule:nonzero;fill:rgb(0%,0%,0%);fill-opacity:1;" d="M 258.175781 181.089844 C 258.175781 181.089844 210.480469 186.851562 215.035156 181.089844 C 216.683594 179.007812 217.140625 172.832031 217.046875 165.796875 C 224.320312 162.6875 233.570312 165.007812 233.570312 165.007812 C 243.3125 163.0625 249.558594 163.441406 253.550781 164.804688 C 254.8125 170.308594 256.359375 175.746094 258.175781 181.089844 Z M 258.175781 181.089844 "/>
</g>
<mask id="mask17">
  <g filter="url(#alpha)">
<rect x="0" y="0" width="499" height="266" style="fill:rgb(0%,0%,0%);fill-opacity:0.101961;stroke:none;"/>
  </g>
</mask>
<clipPath id="clip18">
  <rect x="0" y="0" width="499" height="266"/>
</clipPath>
<g id="surface56" clip-path="url(#clip18)">
<path style=" stroke:none;fill-rule:nonzero;fill:rgb(0%,0%,0%);fill-opacity:1;" d="M 175.488281 208.699219 C 175.488281 208.699219 202.8125 222.863281 212.636719 221.183594 Z M 175.488281 208.699219 "/>
</g>
<mask id="mask18">
  <g filter="url(#alpha)">
<rect x="0" y="0" width="499" height="266" style="fill:rgb(0%,0%,0%);fill-opacity:0.101961;stroke:none;"/>
  </g>
</mask>
<clipPath id="clip19">
  <rect x="0" y="0" width="499" height="266"/>
</clipPath>
<g id="surface59" clip-path="url(#clip19)">
<path style=" stroke:none;fill-rule:nonzero;fill:rgb(0%,0%,0%);fill-opacity:1;" d="M 231.09375 202.9375 C 231.09375 202.9375 257.695312 211.582031 266.566406 212.78125 C 275.433594 213.980469 231.09375 202.9375 231.09375 202.9375 Z M 231.09375 202.9375 "/>
</g>
<mask id="mask19">
  <g filter="url(#alpha)">
<rect x="0" y="0" width="499" height="266" style="fill:rgb(0%,0%,0%);fill-opacity:0.101961;stroke:none;"/>
  </g>
</mask>
<clipPath id="clip20">
  <rect x="0" y="0" width="499" height="266"/>
</clipPath>
<g id="surface62" clip-path="url(#clip20)">
<path style=" stroke:none;fill-rule:nonzero;fill:rgb(0%,0%,0%);fill-opacity:1;" d="M 260.601562 175.128906 C 246.699219 177.691406 220.527344 177.140625 209.214844 176.75 C 213.363281 161.867188 233.582031 166.925781 233.582031 166.925781 C 258.609375 161.925781 260.523438 172.304688 260.601562 175.128906 Z M 260.601562 175.128906 "/>
</g>
<mask id="mask20">
  <g filter="url(#alpha)">
<rect x="0" y="0" width="499" height="266" style="fill:rgb(0%,0%,0%);fill-opacity:0.101961;stroke:none;"/>
  </g>
</mask>
<clipPath id="clip21">
  <rect x="0" y="0" width="499" height="266"/>
</clipPath>
<g id="surface65" clip-path="url(#clip21)">
<path style=" stroke:none;fill-rule:nonzero;fill:rgb(0%,0%,0%);fill-opacity:1;" d="M 252.113281 157.746094 C 251.40625 158.0625 250.6875 158.339844 249.957031 158.582031 C 244.789062 160.367188 239.578125 162.167969 234.136719 162.820312 C 228.695312 163.476562 222.988281 162.898438 218.242188 160.179688 C 217.742188 159.898438 217.261719 159.585938 216.804688 159.246094 C 216.277344 148.679688 215.007812 138.359375 215.007812 138.359375 C 215.007812 138.359375 256.710938 118.671875 251.914062 134.277344 C 250.007812 140.582031 250.65625 149.433594 252.113281 157.746094 Z M 252.113281 157.746094 "/>
</g>
<mask id="mask21">
  <g filter="url(#alpha)">
<rect x="0" y="0" width="499" height="266" style="fill:rgb(0%,0%,0%);fill-opacity:0.101961;stroke:none;"/>
  </g>
</mask>
<clipPath id="clip22">
  <rect x="0" y="0" width="499" height="266"/>
</clipPath>
<g id="surface68" clip-path="url(#clip22)">
<path style=" stroke:none;fill-rule:nonzero;fill:rgb(0%,0%,0%);fill-opacity:1;" d="M 305.359375 232.515625 L 305.308594 233.203125 L 305.308594 233.25 L 305.230469 234.355469 L 304.589844 243.242188 L 303.820312 253.949219 L 303.597656 256.964844 L 303.121094 263.417969 L 303.121094 263.5 L 251.828125 263.980469 L 167.660156 264.890625 L 167.660156 265.292969 L 167.59375 265.292969 L 167.59375 264.757812 L 167.808594 257.863281 L 168.222656 244.390625 L 168.578125 232.964844 L 168.609375 231.828125 C 168.652344 230.441406 169.261719 229.128906 170.296875 228.207031 C 171.332031 227.285156 172.703125 226.828125 174.085938 226.945312 C 176.347656 227.136719 179.285156 227.371094 182.800781 227.621094 L 184.238281 227.726562 C 204.527344 229.140625 242.027344 230.964844 279.867188 228.6875 C 280.664062 228.644531 281.460938 228.597656 282.261719 228.539062 C 288.128906 228.167969 293.992188 227.695312 299.796875 227.097656 C 301.285156 226.941406 302.761719 227.453125 303.835938 228.496094 C 304.90625 229.535156 305.464844 231 305.359375 232.492188 Z M 305.359375 232.515625 "/>
</g>
<mask id="mask22">
  <g filter="url(#alpha)">
<rect x="0" y="0" width="499" height="266" style="fill:rgb(0%,0%,0%);fill-opacity:0.101961;stroke:none;"/>
  </g>
</mask>
<clipPath id="clip23">
  <rect x="0" y="0" width="499" height="266"/>
</clipPath>
<g id="surface71" clip-path="url(#clip23)">
<path style=" stroke:none;fill-rule:nonzero;fill:rgb(0%,0%,0%);fill-opacity:1;" d="M 305.503906 235.878906 L 304.914062 243.242188 L 304.035156 254.210938 L 303.816406 256.957031 L 303.335938 263.109375 L 303.308594 263.417969 L 303.308594 263.5 L 303.234375 264.210938 L 303.289062 263.5 L 303.148438 263.5 L 251.859375 263.980469 L 167.660156 264.890625 L 167.660156 264.757812 L 167.894531 257.863281 L 168.375 244.390625 L 168.683594 235.433594 C 168.710938 234.398438 169.265625 233.449219 170.148438 232.914062 C 170.691406 232.578125 171.328125 232.429688 171.960938 232.480469 C 172.96875 232.5625 174.203125 232.660156 175.648438 232.765625 C 177.992188 232.9375 180.882812 233.140625 184.246094 233.351562 C 190.476562 233.742188 198.296875 234.167969 207.253906 234.511719 C 232.179688 235.472656 265.832031 235.792969 297.792969 232.988281 C 299.230469 232.867188 300.71875 232.726562 302.171875 232.585938 C 302.746094 232.53125 303.324219 232.640625 303.839844 232.902344 C 303.984375 232.976562 304.121094 233.0625 304.25 233.164062 C 304.667969 233.464844 305 233.875 305.210938 234.34375 C 305.257812 234.4375 305.296875 234.535156 305.328125 234.636719 C 305.472656 235.035156 305.53125 235.457031 305.503906 235.878906 Z M 305.503906 235.878906 "/>
</g>
<mask id="mask23">
  <g filter="url(#alpha)">
<rect x="0" y="0" width="499" height="266" style="fill:rgb(0%,0%,0%);fill-opacity:0.101961;stroke:none;"/>
  </g>
</mask>
<clipPath id="clip24">
  <rect x="0" y="0" width="499" height="266"/>
</clipPath>
<g id="surface74" clip-path="url(#clip24)">
<path style=" stroke:none;fill-rule:nonzero;fill:rgb(0%,0%,0%);fill-opacity:1;" d="M 142.894531 242.453125 L 142.894531 243.984375 C 142.894531 245.121094 142.242188 246.15625 141.214844 246.644531 L 121.992188 247.015625 C 120.949219 246.535156 120.28125 245.492188 120.28125 244.339844 L 120.28125 242.898438 Z M 142.894531 242.453125 "/>
</g>
<mask id="mask24">
  <g filter="url(#alpha)">
<rect x="0" y="0" width="499" height="266" style="fill:rgb(0%,0%,0%);fill-opacity:0.101961;stroke:none;"/>
  </g>
</mask>
<clipPath id="clip25">
  <rect x="0" y="0" width="499" height="266"/>
</clipPath>
<g id="surface77" clip-path="url(#clip25)">
<path style=" stroke:none;fill-rule:nonzero;fill:rgb(0%,0%,0%);fill-opacity:1;" d="M 143.132812 247.546875 L 118.085938 248.027344 L 118.085938 243.867188 L 143.132812 243.386719 Z M 143.132812 247.546875 "/>
</g>
<mask id="mask25">
  <g filter="url(#alpha)">
<rect x="0" y="0" width="499" height="266" style="fill:rgb(0%,0%,0%);fill-opacity:0.101961;stroke:none;"/>
  </g>
</mask>
<clipPath id="clip26">
  <rect x="0" y="0" width="499" height="266"/>
</clipPath>
<g id="surface80" clip-path="url(#clip26)">
<path style=" stroke:none;fill-rule:nonzero;fill:rgb(0%,0%,0%);fill-opacity:1;" d="M 227.015625 90.578125 C 226.546875 89.96875 226.234375 89.253906 226.109375 88.496094 C 225.992188 89.238281 226.0625 89.996094 226.308594 90.703125 C 226.546875 90.683594 226.78125 90.640625 227.015625 90.578125 Z M 227.015625 90.578125 "/>
<path style=" stroke:none;fill-rule:nonzero;fill:rgb(0%,0%,0%);fill-opacity:1;" d="M 220.925781 93.765625 C 220.835938 93.179688 220.777344 92.585938 220.75 91.992188 C 220.75 92.582031 220.75 93.175781 220.75 93.773438 Z M 220.925781 93.765625 "/>
<path style=" stroke:none;fill-rule:nonzero;fill:rgb(0%,0%,0%);fill-opacity:1;" d="M 259.992188 109.789062 C 260.019531 109.363281 260.078125 108.9375 260.164062 108.515625 C 260.390625 107.789062 260.519531 107.03125 260.550781 106.265625 C 260.539062 106.09375 260.511719 105.921875 260.472656 105.757812 C 260.390625 106.199219 260.261719 106.640625 260.164062 107.078125 C 259.972656 107.96875 259.914062 108.882812 259.992188 109.789062 Z M 259.992188 109.789062 "/>
<path style=" stroke:none;fill-rule:nonzero;fill:rgb(0%,0%,0%);fill-opacity:1;" d="M 250.023438 94.953125 L 250.546875 95.332031 C 250.984375 95.011719 251.398438 94.65625 251.777344 94.265625 C 252.144531 93.757812 252.214844 93.09375 251.960938 92.519531 C 251.910156 92.628906 251.851562 92.730469 251.777344 92.828125 C 251.1875 93.585938 249.882812 94.003906 250.023438 94.953125 Z M 250.023438 94.953125 "/>
<path style=" stroke:none;fill-rule:nonzero;fill:rgb(0%,0%,0%);fill-opacity:1;" d="M 210.632812 99.574219 C 210.460938 99.921875 210.320312 100.289062 210.21875 100.667969 C 210.96875 100.246094 211.773438 99.941406 212.613281 99.757812 Z M 210.632812 99.574219 "/>
<path style=" stroke:none;fill-rule:nonzero;fill:rgb(0%,0%,0%);fill-opacity:1;" d="M 217.246094 94.347656 C 216.929688 94.175781 216.628906 93.976562 216.34375 93.757812 C 216.332031 93.949219 216.347656 94.136719 216.386719 94.324219 C 216.671875 94.3125 216.960938 94.320312 217.246094 94.347656 Z M 217.246094 94.347656 "/>
<path style=" stroke:none;fill-rule:nonzero;fill:rgb(0%,0%,0%);fill-opacity:1;" d="M 264.109375 122.636719 C 263.914062 124.96875 262.832031 127.210938 261.953125 129.417969 C 260.195312 133.84375 259.203125 138.539062 258.460938 143.25 C 257.792969 147.472656 257.019531 152.261719 253.425781 154.601562 C 252.398438 155.214844 251.296875 155.699219 250.152344 156.042969 C 244.984375 157.832031 239.773438 159.628906 234.332031 160.28125 C 228.894531 160.933594 223.183594 160.363281 218.4375 157.644531 C 217.0625 156.925781 215.882812 155.882812 214.996094 154.605469 C 213.714844 152.574219 213.691406 150.03125 213.078125 147.707031 C 212.554688 145.980469 211.914062 144.292969 211.160156 142.65625 C 210.101562 140.074219 209.289062 137.375 208.476562 134.71875 C 207.726562 132.25 206.976562 129.78125 206.230469 127.308594 C 205.984375 126.566406 205.800781 125.804688 205.683594 125.03125 C 205.496094 126.257812 205.859375 127.546875 206.230469 128.75 C 206.976562 131.226562 207.726562 133.695312 208.476562 136.160156 C 209.289062 138.832031 210.101562 141.511719 211.160156 144.097656 C 211.914062 145.734375 212.554688 147.421875 213.078125 149.148438 C 213.683594 151.472656 213.707031 154.015625 214.996094 156.046875 C 215.882812 157.324219 217.0625 158.367188 218.4375 159.085938 C 223.183594 161.804688 228.90625 162.375 234.332031 161.722656 C 239.757812 161.070312 244.964844 159.273438 250.152344 157.484375 C 251.296875 157.140625 252.398438 156.65625 253.425781 156.042969 C 256.996094 153.703125 257.792969 148.910156 258.460938 144.691406 C 259.203125 139.980469 260.195312 135.285156 261.953125 130.859375 C 263 128.226562 264.351562 125.554688 264.121094 122.726562 C 264.121094 122.695312 264.109375 122.667969 264.109375 122.636719 Z M 264.109375 122.636719 "/>
<path style=" stroke:none;fill-rule:nonzero;fill:rgb(0%,0%,0%);fill-opacity:1;" d="M 206.738281 120.78125 C 206.738281 120.78125 206.738281 120.746094 206.738281 120.726562 C 206.824219 119.878906 206.75 119.027344 206.515625 118.207031 C 206.421875 117.679688 206.359375 117.148438 206.328125 116.613281 C 206.273438 117.628906 206.335938 118.644531 206.515625 119.648438 C 206.59375 120.023438 206.679688 120.402344 206.738281 120.78125 Z M 206.738281 120.78125 "/>
<path style=" stroke:none;fill-rule:nonzero;fill:rgb(0%,0%,0%);fill-opacity:1;" d="M 208.199219 109.035156 C 208.566406 108.414062 208.988281 107.828125 209.449219 107.273438 C 208.574219 108.113281 206.953125 107.363281 206.613281 106.199219 C 206.488281 106.671875 206.488281 107.167969 206.613281 107.640625 C 206.851562 108.355469 207.457031 108.890625 208.199219 109.035156 Z M 208.199219 109.035156 "/>
</g>
<mask id="mask26">
  <g filter="url(#alpha)">
<rect x="0" y="0" width="499" height="266" style="fill:rgb(0%,0%,0%);fill-opacity:0.101961;stroke:none;"/>
  </g>
</mask>
<clipPath id="clip27">
  <rect x="0" y="0" width="499" height="266"/>
</clipPath>
<g id="surface83" clip-path="url(#clip27)">
<path style=" stroke:none;fill-rule:nonzero;fill:rgb(0%,0%,0%);fill-opacity:1;" d="M 327.921875 232.226562 C 327.921875 232.226562 329.441406 237.75 327.921875 242.550781 C 326.402344 247.351562 327.921875 232.226562 327.921875 232.226562 Z M 327.921875 232.226562 "/>
</g>
<mask id="mask27">
  <g filter="url(#alpha)">
<rect x="0" y="0" width="499" height="266" style="fill:rgb(0%,0%,0%);fill-opacity:0.101961;stroke:none;"/>
  </g>
</mask>
<clipPath id="clip28">
  <rect x="0" y="0" width="499" height="266"/>
</clipPath>
<g id="surface86" clip-path="url(#clip28)">
<path style=" stroke:none;fill-rule:nonzero;fill:rgb(0%,0%,0%);fill-opacity:1;" d="M 334.390625 237.859375 C 334.390625 237.859375 335.03125 244.867188 333.59375 246.113281 C 332.152344 247.355469 334.390625 237.859375 334.390625 237.859375 Z M 334.390625 237.859375 "/>
</g>
</defs>
<g id="surface1">
<use xlink:href="#surface5" mask="url(#mask0)"/>
<use xlink:href="#surface8" mask="url(#mask1)"/>
<path style=" stroke:none;fill-rule:nonzero;fill:rgb(24.705882%,23.921569%,33.72549%);fill-opacity:1;" d="M 101.429688 127.636719 L 110.539062 127.636719 L 110.539062 155.320312 L 101.429688 155.320312 Z M 101.429688 127.636719 "/>
<path style=" stroke:none;fill-rule:nonzero;fill:rgb(24.705882%,23.921569%,33.72549%);fill-opacity:1;" d="M 346.535156 126.195312 L 355.640625 126.195312 L 355.640625 155.484375 L 346.535156 155.484375 Z M 346.535156 126.195312 "/>
<path style=" stroke:none;fill-rule:nonzero;fill:rgb(39.607843%,38.039216%,49.019608%);fill-opacity:1;" d="M 413.722656 256.230469 L 413.722656 262.472656 L 340.902344 263.144531 L 340.125 263.15625 L 312.449219 263.410156 L 311.785156 263.421875 L 303.375 263.492188 L 303.125 263.492188 L 251.84375 263.96875 L 167.664062 264.75 L 167.59375 264.75 L 146.191406 264.953125 L 145.960938 264.957031 L 50.859375 265.832031 L 50.859375 258.628906 L 73.21875 245.1875 L 118.085938 244.8125 L 119.046875 244.804688 L 119.363281 244.800781 L 120.320312 244.789062 L 141.863281 244.609375 L 142.824219 244.605469 L 143.132812 244.601562 L 144.089844 244.59375 L 151 244.539062 L 151.179688 244.53125 L 168.222656 244.390625 L 168.359375 244.390625 L 301.332031 243.265625 L 304.585938 243.242188 L 304.914062 243.242188 L 307.394531 243.21875 L 325.441406 243.066406 L 326.402344 243.054688 L 327.289062 243.042969 L 327.75 243.042969 L 333.363281 243 L 334.472656 242.988281 L 335.964844 242.976562 L 340.636719 242.933594 L 348.054688 242.871094 L 349.011719 242.863281 L 350.679688 242.851562 L 350.992188 242.851562 L 386.804688 242.546875 Z M 413.722656 256.230469 "/>
<use xlink:href="#surface11" mask="url(#mask2)"/>
<path style=" stroke:none;fill-rule:nonzero;fill:rgb(24.705882%,23.921569%,33.72549%);fill-opacity:1;" d="M 141.933594 232.226562 L 141.933594 243.984375 C 141.933594 245.121094 141.28125 246.15625 140.257812 246.644531 C 139.882812 246.828125 139.472656 246.925781 139.058594 246.933594 L 122.328125 247.289062 C 121.882812 247.300781 121.4375 247.207031 121.035156 247.015625 C 119.992188 246.535156 119.324219 245.492188 119.324219 244.339844 L 119.324219 232.226562 Z M 141.933594 232.226562 "/>
<use xlink:href="#surface14" mask="url(#mask3)"/>
<path style=" stroke:none;fill-rule:nonzero;fill:rgb(24.705882%,23.921569%,33.72549%);fill-opacity:1;" d="M 142.894531 232.226562 L 142.894531 243.984375 C 142.894531 245.121094 142.242188 246.15625 141.214844 246.644531 C 140.839844 246.828125 140.433594 246.925781 140.015625 246.933594 L 123.289062 247.289062 C 122.839844 247.300781 122.398438 247.207031 121.992188 247.015625 C 120.949219 246.535156 120.28125 245.492188 120.28125 244.339844 L 120.28125 232.226562 Z M 142.894531 232.226562 "/>
<path style=" stroke:none;fill-rule:nonzero;fill:rgb(24.705882%,23.921569%,33.72549%);fill-opacity:1;" d="M 326.402344 232.226562 L 349.011719 232.226562 L 349.011719 247.351562 L 326.402344 247.351562 Z M 326.402344 232.226562 "/>
<use xlink:href="#surface17" mask="url(#mask4)"/>
<path style=" stroke:none;fill-rule:nonzero;fill:rgb(24.705882%,23.921569%,33.72549%);fill-opacity:1;" d="M 325.441406 232.226562 L 348.054688 232.226562 L 348.054688 247.351562 L 325.441406 247.351562 Z M 325.441406 232.226562 "/>
<use xlink:href="#surface20" mask="url(#mask5)"/>
<path style=" stroke:none;fill-rule:nonzero;fill:rgb(39.607843%,38.039216%,49.019608%);fill-opacity:1;" d="M 170.484375 50.128906 L 159.539062 128.871094 C 159.398438 129.914062 158.496094 130.679688 157.445312 130.652344 L 69.820312 128.375 L 68.160156 128.332031 C 67.574219 128.320312 67.019531 128.054688 66.640625 127.609375 C 66.257812 127.164062 66.085938 126.578125 66.164062 125.996094 L 78.449219 43.5625 C 78.613281 42.503906 79.558594 41.75 80.625 41.820312 L 168.566406 47.785156 C 169.140625 47.816406 169.675781 48.089844 170.039062 48.535156 C 170.402344 48.980469 170.566406 49.558594 170.484375 50.128906 Z M 170.484375 50.128906 "/>
<path style=" stroke:none;fill-rule:nonzero;fill:rgb(42.352941%,38.823529%,100%);fill-opacity:1;" d="M 84.332031 47.609375 L 75.066406 120.269531 L 155.597656 122.832031 L 165.5 52.730469 Z M 84.332031 47.609375 "/>
<path style=" stroke:none;fill-rule:nonzero;fill:rgb(39.607843%,38.039216%,49.019608%);fill-opacity:1;" d="M 186.910156 46.488281 L 279.910156 46.488281 C 281.320312 46.488281 282.464844 47.632812 282.464844 49.046875 L 282.464844 127.152344 C 282.464844 128.566406 281.320312 129.710938 279.910156 129.710938 L 186.910156 129.710938 C 185.5 129.710938 184.355469 128.566406 184.355469 127.152344 L 184.355469 49.046875 C 184.355469 47.632812 185.5 46.488281 186.910156 46.488281 Z M 186.910156 46.488281 "/>
<path style=" stroke:none;fill-rule:nonzero;fill:rgb(42.352941%,38.823529%,100%);fill-opacity:1;" d="M 188.988281 52.089844 L 278.144531 52.089844 L 278.144531 121.390625 L 188.988281 121.390625 Z M 188.988281 52.089844 "/>
<use xlink:href="#surface23" mask="url(#mask6)"/>
<path style=" stroke:none;fill-rule:nonzero;fill:rgb(39.607843%,38.039216%,49.019608%);fill-opacity:1;" d="M 396.734375 124.65625 C 396.761719 125.058594 396.625 125.453125 396.351562 125.75 C 396.082031 126.046875 395.699219 126.21875 395.296875 126.230469 L 305.5625 128.089844 C 304.792969 128.105469 304.136719 127.519531 304.0625 126.75 L 296.351562 46.429688 C 296.3125 46.027344 296.441406 45.625 296.707031 45.320312 C 296.96875 45.015625 297.347656 44.832031 297.75 44.8125 L 386.804688 40.375 L 387.761719 40.328125 C 388.554688 40.285156 389.238281 40.878906 389.304688 41.671875 Z M 396.734375 124.65625 "/>
<path style=" stroke:none;fill-rule:nonzero;fill:rgb(42.352941%,38.823529%,100%);fill-opacity:1;" d="M 301.476562 49.53125 L 382.804688 45.527344 L 389.675781 118.507812 L 308.988281 120.429688 Z M 301.476562 49.53125 "/>
<use xlink:href="#surface26" mask="url(#mask7)"/>
<use xlink:href="#surface29" mask="url(#mask8)"/>
<use xlink:href="#surface32" mask="url(#mask9)"/>
<use xlink:href="#surface35" mask="url(#mask10)"/>
<path style=" stroke:none;fill-rule:nonzero;fill:rgb(39.607843%,38.039216%,49.019608%);fill-opacity:1;" d="M 182.800781 149.976562 L 182.800781 230.738281 C 182.785156 231.761719 181.976562 232.597656 180.953125 232.632812 L 89.085938 235.082031 L 89.0625 235.082031 C 88.023438 235.070312 87.183594 234.230469 87.167969 233.1875 L 87.167969 149.976562 C 87.183594 148.9375 88.023438 148.09375 89.0625 148.082031 L 180.90625 148.082031 C 181.945312 148.09375 182.785156 148.9375 182.800781 149.976562 Z M 182.800781 149.976562 "/>
<use xlink:href="#surface38" mask="url(#mask11)"/>
<path style=" stroke:none;fill-rule:nonzero;fill:rgb(83.137255%,87.45098%,92.54902%);fill-opacity:1;" d="M 93.28125 153.238281 L 178.363281 153.238281 L 178.363281 224.417969 L 93.28125 226.339844 Z M 93.28125 153.238281 "/>
<use xlink:href="#surface41" mask="url(#mask12)"/>
<use xlink:href="#surface44" mask="url(#mask13)"/>
<path style=" stroke:none;fill-rule:nonzero;fill:rgb(39.607843%,38.039216%,49.019608%);fill-opacity:1;" d="M 377.894531 149.976562 L 377.894531 233.1875 C 377.878906 234.238281 377.023438 235.082031 375.976562 235.082031 L 284.089844 232.632812 C 283.066406 232.597656 282.257812 231.761719 282.246094 230.738281 L 282.246094 149.976562 C 282.257812 148.9375 283.097656 148.09375 284.136719 148.082031 L 375.980469 148.082031 C 377.027344 148.082031 377.878906 148.929688 377.894531 149.976562 Z M 377.894531 149.976562 "/>
<use xlink:href="#surface47" mask="url(#mask14)"/>
<path style=" stroke:none;fill-rule:nonzero;fill:rgb(83.137255%,87.45098%,92.54902%);fill-opacity:1;" d="M 371.78125 153.238281 L 286.699219 153.238281 L 286.699219 224.417969 L 371.78125 226.339844 Z M 371.78125 153.238281 "/>
<path style=" stroke:none;fill-rule:nonzero;fill:rgb(39.607843%,38.039216%,49.019608%);fill-opacity:1;" d="M 279.867188 149.976562 L 279.867188 230.738281 C 279.855469 231.761719 279.042969 232.597656 278.019531 232.632812 L 186.15625 235.082031 C 185.105469 235.082031 184.25 234.238281 184.238281 233.1875 L 184.238281 149.976562 C 184.25 148.9375 185.089844 148.09375 186.128906 148.082031 L 277.972656 148.082031 C 279.011719 148.09375 279.855469 148.9375 279.867188 149.976562 Z M 279.867188 149.976562 "/>
<path style=" stroke:none;fill-rule:nonzero;fill:rgb(83.137255%,87.45098%,92.54902%);fill-opacity:1;" d="M 190.347656 153.238281 L 275.433594 153.238281 L 275.433594 224.417969 L 190.347656 226.339844 Z M 190.347656 153.238281 "/>
<use xlink:href="#surface50" mask="url(#mask15)"/>
<path style=" stroke:none;fill-rule:nonzero;fill:rgb(98.431373%,74.509804%,74.509804%);fill-opacity:1;" d="M 258.171875 130.675781 C 258.171875 144.289062 247.15625 155.320312 233.566406 155.320312 C 219.976562 155.320312 208.960938 144.289062 208.960938 130.675781 C 208.960938 117.066406 219.976562 106.03125 233.566406 106.03125 C 247.15625 106.03125 258.171875 117.066406 258.171875 130.675781 Z M 258.171875 130.675781 "/>
<path style=" stroke:none;fill-rule:nonzero;fill:url(#linear0);" d="M 145.914062 265.125 C 145.914062 265.074219 145.941406 265.015625 145.960938 264.957031 C 146.441406 263.234375 147.292969 260.320312 147.929688 257.992188 C 148.011719 257.703125 148.089844 257.417969 148.160156 257.152344 C 148.867188 254.523438 150.238281 248.375 151 244.539062 C 151.265625 243.1875 151.476562 242.136719 151.523438 241.609375 C 151.617188 240.796875 153.058594 237.324219 154.695312 233.335938 C 155.839844 230.53125 157.089844 227.46875 158.007812 224.886719 C 158.605469 223.351562 159.078125 221.769531 159.410156 220.15625 C 159.484375 219.820312 159.484375 219.46875 159.410156 219.132812 C 159.269531 218.585938 159.191406 218.019531 159.179688 217.453125 C 159.070312 214.476562 159.957031 209.769531 161.328125 207.796875 C 163.007812 205.394531 164.203125 196.4375 164.203125 196.4375 C 164.203125 196.4375 166.6875 196.796875 167.082031 194.742188 C 167.121094 194.519531 167.140625 194.292969 167.128906 194.070312 C 167.128906 193.890625 167.113281 193.714844 167.085938 193.535156 C 166.660156 190.539062 174.140625 187.351562 178.351562 186.664062 C 178.824219 186.585938 179.304688 186.539062 179.789062 186.53125 C 180.8125 186.417969 181.816406 186.1875 182.785156 185.839844 C 183.230469 185.703125 183.710938 185.542969 184.222656 185.359375 C 185.988281 184.765625 188.09375 183.976562 190.335938 183.113281 C 198.75 179.84375 208.941406 175.429688 208.941406 175.429688 C 209.015625 175.089844 209.097656 174.761719 209.1875 174.441406 C 210.207031 170.335938 213.117188 166.960938 217.023438 165.351562 C 217.023438 165.035156 217.023438 164.714844 217.023438 164.390625 C 217.023438 162.734375 216.953125 161.03125 216.878906 159.332031 C 216.878906 159 216.851562 158.667969 216.832031 158.335938 C 216.832031 158.242188 216.832031 158.140625 216.832031 158.042969 C 216.832031 157.949219 216.832031 157.875 216.832031 157.792969 C 216.832031 157.457031 216.800781 157.121094 216.78125 156.792969 L 216.695312 156.722656 C 215.957031 156.167969 215.324219 155.484375 214.824219 154.707031 C 214.546875 154.253906 214.316406 153.769531 214.144531 153.265625 C 213.542969 151.640625 213.40625 149.824219 213.003906 148.105469 L 212.917969 147.75 C 212.390625 146.015625 211.75 144.316406 211 142.671875 C 209.941406 140.066406 209.125 137.386719 208.316406 134.675781 C 207.824219 133.035156 207.324219 131.386719 206.824219 129.738281 L 206.066406 127.222656 C 205.921875 126.742188 205.777344 126.261719 205.667969 125.785156 C 205.613281 125.5625 205.574219 125.335938 205.542969 125.109375 C 205.410156 124.375 205.449219 123.617188 205.660156 122.898438 C 205.84375 122.40625 206.054688 121.925781 206.292969 121.457031 C 206.390625 121.246094 206.472656 121.023438 206.53125 120.792969 C 206.546875 120.746094 206.558594 120.691406 206.570312 120.640625 C 206.605469 120.46875 206.621094 120.296875 206.621094 120.121094 C 206.605469 119.492188 206.523438 118.867188 206.375 118.253906 C 206.371094 118.246094 206.371094 118.238281 206.375 118.230469 C 206.367188 118.1875 206.359375 118.144531 206.347656 118.101562 C 206.261719 117.625 206.207031 117.144531 206.175781 116.660156 C 206.007812 114.0625 206.585938 111.46875 207.839844 109.183594 L 207.929688 109.011719 C 208.195312 108.546875 208.488281 108.101562 208.8125 107.675781 C 208.960938 107.476562 209.113281 107.285156 209.292969 107.089844 C 208.621094 107.734375 207.519531 107.453125 206.894531 106.761719 C 206.792969 106.652344 206.703125 106.53125 206.632812 106.398438 C 206.589844 106.332031 206.554688 106.257812 206.523438 106.183594 C 206.496094 106.125 206.480469 106.0625 206.460938 106 C 206.125 104.824219 206.707031 103.570312 207.476562 102.617188 C 208.230469 101.6875 209.167969 100.917969 210.226562 100.359375 C 210.289062 100.324219 210.351562 100.289062 210.417969 100.257812 C 210.824219 100.054688 211.25 99.882812 211.683594 99.75 C 211.941406 99.664062 212.203125 99.59375 212.464844 99.539062 L 210.6875 99.375 L 209.96875 99.308594 C 210.699219 96.398438 213.210938 94.289062 216.199219 94.070312 L 216.71875 94.070312 C 216.96875 94.074219 217.222656 94.09375 217.46875 94.132812 C 216.652344 93.773438 216.148438 92.945312 216.199219 92.054688 C 217.453125 93.039062 219.011719 93.554688 220.605469 93.523438 L 220.789062 93.523438 C 220.703125 93.003906 220.648438 92.476562 220.625 91.953125 C 220.578125 91.238281 220.578125 90.523438 220.625 89.8125 C 221.492188 90.636719 222.683594 91.035156 223.875 90.894531 L 222.878906 89.503906 C 223.765625 90.214844 224.886719 90.566406 226.023438 90.488281 L 226.25 90.464844 C 226.445312 90.445312 226.636719 90.40625 226.820312 90.355469 L 226.867188 90.355469 C 226.773438 90.238281 226.691406 90.117188 226.609375 89.992188 L 226.582031 89.9375 C 226.382812 89.621094 226.222656 89.285156 226.101562 88.933594 C 226.054688 88.796875 226.015625 88.65625 225.988281 88.515625 C 225.777344 87.640625 225.855469 86.726562 226.203125 85.898438 C 227.753906 87.195312 229.449219 88.964844 231.476562 87.625 C 233.503906 86.285156 233.570312 83.828125 236.75 84.078125 C 238.527344 84.246094 240.074219 85.371094 240.78125 87.015625 C 241.699219 85.976562 243.179688 85.636719 244.457031 86.175781 C 245.714844 86.773438 246.460938 88.097656 246.316406 89.484375 C 247.636719 89.152344 249.054688 88.828125 250.320312 89.324219 C 251.585938 89.824219 252.398438 91.445312 251.679688 92.523438 C 251.660156 92.558594 251.640625 92.589844 251.613281 92.621094 C 251.023438 93.382812 249.71875 93.800781 249.859375 94.761719 L 250.0625 94.90625 L 250.683594 95.355469 C 253.128906 97.125 255.507812 98.980469 257.828125 100.925781 C 259.015625 101.925781 260.28125 103.125 260.363281 104.6875 C 260.375 105.070312 260.335938 105.453125 260.246094 105.824219 C 260.171875 106.199219 260.066406 106.574219 259.984375 106.949219 C 259.777344 107.902344 259.722656 108.882812 259.820312 109.851562 C 259.855469 110.136719 259.898438 110.414062 259.949219 110.699219 C 260.683594 114.410156 263.644531 117.472656 263.9375 121.261719 L 263.9375 121.53125 C 263.957031 121.933594 263.945312 122.339844 263.90625 122.742188 C 263.683594 125.046875 262.621094 127.261719 261.757812 129.464844 C 261.703125 129.601562 261.652344 129.734375 261.601562 129.871094 C 259.941406 134.191406 258.980469 138.796875 258.25 143.390625 C 258.011719 145.019531 257.691406 146.636719 257.289062 148.234375 C 256.851562 150.0625 256.019531 151.773438 254.847656 153.242188 C 254.382812 153.796875 253.839844 154.28125 253.238281 154.683594 C 252.835938 154.941406 252.410156 155.167969 251.96875 155.359375 C 251.96875 155.359375 251.96875 155.359375 251.96875 155.390625 C 252.019531 155.683594 252.066406 155.976562 252.117188 156.269531 C 252.144531 156.421875 252.171875 156.574219 252.199219 156.746094 C 252.195312 156.757812 252.195312 156.765625 252.199219 156.777344 C 252.601562 159.046875 253.0625 161.269531 253.546875 163.382812 L 253.789062 164.433594 C 259.828125 166.621094 260.542969 171.09375 260.585938 172.808594 C 260.605469 173.039062 260.605469 173.265625 260.585938 173.496094 C 260.585938 173.496094 269.695312 173.734375 273.289062 176.375 C 273.960938 176.832031 274.6875 177.203125 275.453125 177.480469 C 276.902344 178.027344 278.382812 178.492188 279.886719 178.867188 C 280.65625 179.070312 281.460938 179.265625 282.28125 179.457031 C 283.71875 179.789062 285.246094 180.113281 286.714844 180.417969 C 290.640625 181.210938 294.339844 181.859375 296.210938 182.339844 C 300.683594 183.472656 310.914062 193.296875 310.914062 193.296875 C 310.914062 193.296875 312.113281 203.207031 313.3125 204.652344 C 314.507812 206.097656 316.667969 211.175781 316.667969 211.175781 L 324.59375 225.296875 L 327.949219 231.238281 L 330.105469 231.238281 C 330.402344 231.238281 330.988281 231.660156 331.644531 232.246094 C 332.214844 232.753906 332.847656 233.386719 333.40625 233.964844 L 334.324219 234.949219 L 334.902344 235.585938 C 334.902344 235.585938 338.386719 235.675781 339.328125 238.433594 C 342.167969 238.351562 345.652344 238.539062 348.09375 239.636719 C 348.425781 239.78125 348.746094 239.957031 349.050781 240.152344 C 350.0625 240.742188 350.78125 241.726562 351.03125 242.871094 C 351.078125 243.097656 351.109375 243.332031 351.117188 243.5625 C 351.117188 243.835938 351.117188 244.109375 351.117188 244.378906 C 350.945312 248.015625 348.582031 251.039062 346.410156 253.074219 L 346.5625 253.347656 C 346.5625 253.347656 346.492188 253.519531 346.351562 253.828125 C 346.3125 253.917969 346.265625 254.019531 346.214844 254.136719 C 345.929688 254.742188 345.480469 255.648438 344.890625 256.710938 C 343.640625 259.007812 342.097656 261.132812 340.300781 263.03125 L 340.164062 263.175781 L 312.484375 263.429688 L 312.40625 263.335938 L 307.035156 256.921875 L 304.367188 253.730469 L 304.285156 253.632812 L 304.207031 254.394531 L 303.949219 256.941406 L 303.324219 263.089844 L 303.292969 263.398438 L 303.292969 263.480469 L 303.21875 264.191406 L 303.273438 263.480469 L 303.132812 263.480469 L 251.84375 263.960938 L 167.660156 264.890625 L 167.660156 265.292969 L 167.59375 265.292969 L 167.59375 264.890625 L 146.144531 265.121094 Z M 145.914062 265.125 "/>
<path style=" stroke:none;fill-rule:nonzero;fill:rgb(98.431373%,74.509804%,74.509804%);fill-opacity:1;" d="M 258.175781 181.089844 C 258.175781 181.089844 210.480469 186.851562 215.035156 181.089844 C 216.683594 179.007812 217.140625 172.832031 217.046875 165.796875 C 217.019531 163.660156 216.941406 161.449219 216.832031 159.246094 C 216.304688 148.679688 215.035156 138.359375 215.035156 138.359375 C 215.035156 138.359375 256.738281 118.671875 251.945312 134.277344 C 250.027344 140.582031 250.65625 149.433594 252.113281 157.746094 C 252.539062 160.171875 253.03125 162.546875 253.550781 164.804688 C 254.8125 170.308594 256.359375 175.746094 258.175781 181.089844 Z M 258.175781 181.089844 "/>
<use xlink:href="#surface53" mask="url(#mask16)"/>
<path style=" stroke:none;fill-rule:nonzero;fill:rgb(42.352941%,38.823529%,100%);fill-opacity:1;" d="M 167.648438 265.292969 L 167.648438 264.890625 L 251.828125 263.972656 L 303.121094 263.492188 L 303.261719 263.492188 L 303.210938 264.203125 L 303.28125 263.492188 L 303.375 263.492188 L 303.375 263.410156 L 304.03125 256.953125 L 304.28125 254.511719 L 304.355469 253.746094 L 304.421875 253.109375 L 307.386719 243.210938 L 310.347656 233.332031 L 312.839844 225.011719 L 316.648438 212.296875 C 316.648438 212.296875 314.488281 207.253906 313.292969 205.8125 C 312.09375 204.375 310.894531 194.53125 310.894531 194.53125 C 310.894531 194.53125 300.664062 184.769531 296.191406 183.644531 C 294.320312 183.164062 290.617188 182.527344 286.6875 181.726562 C 285.214844 181.425781 283.707031 181.109375 282.253906 180.765625 C 281.433594 180.578125 280.628906 180.378906 279.855469 180.183594 C 278.355469 179.808594 276.875 179.347656 275.421875 178.8125 C 274.660156 178.535156 273.9375 178.164062 273.265625 177.710938 C 269.742188 175.125 260.914062 174.832031 260.574219 174.832031 C 260.570312 174.820312 260.570312 174.808594 260.574219 174.796875 L 260.574219 174.753906 C 260.585938 174.550781 260.585938 174.351562 260.574219 174.148438 C 260.574219 173.957031 260.574219 173.730469 260.53125 173.476562 C 260.53125 173.398438 260.53125 173.316406 260.496094 173.234375 C 260.472656 173.0625 260.445312 172.878906 260.398438 172.6875 C 260.386719 172.601562 260.367188 172.519531 260.34375 172.433594 C 260.203125 171.855469 260.003906 171.292969 259.742188 170.757812 C 259.710938 170.683594 259.667969 170.601562 259.628906 170.523438 C 259.394531 170.078125 259.121094 169.65625 258.8125 169.261719 C 258.75 169.179688 258.683594 169.09375 258.613281 169.011719 C 258.21875 168.546875 257.78125 168.121094 257.308594 167.742188 C 257.179688 167.640625 257.042969 167.535156 256.90625 167.441406 C 256.828125 167.378906 256.746094 167.320312 256.660156 167.269531 L 256.234375 166.988281 L 255.835938 166.757812 C 255.488281 166.566406 255.117188 166.378906 254.714844 166.203125 C 254.589844 166.144531 254.457031 166.089844 254.320312 166.039062 C 254.1875 165.984375 253.976562 165.902344 253.800781 165.835938 L 253.769531 165.835938 L 253.410156 165.691406 C 253.136719 165.601562 252.859375 165.519531 252.566406 165.4375 L 252.121094 165.324219 L 251.644531 165.210938 L 251.164062 165.113281 C 250.683594 165.015625 250.171875 164.929688 249.632812 164.863281 L 249.085938 164.796875 L 248.527344 164.738281 L 247.945312 164.691406 L 247.121094 164.640625 L 246.164062 164.609375 C 241.9375 164.609375 237.71875 165.054688 233.585938 165.949219 C 230.714844 165.308594 227.773438 165.035156 224.832031 165.140625 L 224.414062 165.140625 L 223.9375 165.167969 L 223.628906 165.167969 L 223.011719 165.226562 C 222.804688 165.226562 222.59375 165.269531 222.386719 165.300781 C 222.183594 165.328125 221.964844 165.351562 221.761719 165.386719 L 221.445312 165.4375 C 221.132812 165.492188 220.816406 165.550781 220.484375 165.617188 C 220.378906 165.636719 220.273438 165.660156 220.167969 165.6875 C 219.75 165.78125 219.335938 165.890625 218.921875 166.015625 C 218.714844 166.074219 218.511719 166.140625 218.304688 166.210938 C 218.199219 166.242188 218.097656 166.277344 217.996094 166.316406 L 217.691406 166.425781 L 217.386719 166.546875 L 217.027344 166.691406 C 216.847656 166.769531 216.667969 166.851562 216.492188 166.9375 C 216.390625 166.980469 216.289062 167.027344 216.195312 167.082031 C 216.097656 167.132812 216 167.175781 215.90625 167.230469 C 214.824219 167.789062 213.820312 168.5 212.929688 169.332031 L 212.6875 169.566406 L 212.445312 169.8125 C 212.363281 169.894531 212.289062 169.980469 212.210938 170.066406 C 211.898438 170.410156 211.609375 170.769531 211.339844 171.148438 C 211.261719 171.25 211.191406 171.347656 211.117188 171.453125 C 210.816406 171.902344 210.539062 172.371094 210.292969 172.855469 C 210.230469 172.972656 210.175781 173.09375 210.117188 173.207031 C 209.726562 174.019531 209.40625 174.863281 209.15625 175.726562 C 209.070312 176.046875 208.988281 176.367188 208.914062 176.6875 C 208.804688 177.167969 198.765625 181.171875 190.347656 184.417969 C 188.109375 185.28125 186 186.066406 184.238281 186.65625 C 183.722656 186.828125 183.246094 186.988281 182.800781 187.136719 C 181.832031 187.488281 180.824219 187.71875 179.804688 187.828125 C 179.320312 187.835938 178.839844 187.878906 178.363281 187.960938 C 174.496094 188.589844 167.867188 191.324219 167.144531 194.066406 C 167.085938 194.285156 167.070312 194.511719 167.09375 194.738281 C 167.09375 194.738281 167.09375 194.769531 167.09375 194.789062 C 167.574219 198.152344 164.21875 197.671875 164.21875 197.671875 C 164.21875 197.671875 163.019531 206.554688 161.34375 208.953125 C 160.128906 210.683594 159.300781 214.539062 159.195312 217.449219 C 159.136719 218.355469 159.207031 219.265625 159.40625 220.152344 C 159.40625 220.175781 159.40625 220.199219 159.40625 220.21875 C 159.597656 220.863281 159.136719 222.617188 158.355469 224.871094 C 157.507812 227.34375 156.273438 230.417969 155.082031 233.316406 C 153.289062 237.695312 151.601562 241.671875 151.496094 242.546875 C 151.453125 242.933594 151.328125 243.628906 151.15625 244.527344 C 150.457031 248.1875 148.902344 255.152344 148.136719 257.972656 C 147.566406 260.074219 146.738281 262.957031 146.167969 264.933594 C 146.167969 264.992188 146.132812 265.050781 146.121094 265.101562 L 167.609375 264.890625 L 167.609375 265.292969 L 167.675781 265.292969 Z M 167.648438 265.292969 "/>
<use xlink:href="#surface56" mask="url(#mask17)"/>
<use xlink:href="#surface59" mask="url(#mask18)"/>
<use xlink:href="#surface62" mask="url(#mask19)"/>
<path style=" stroke:none;fill-rule:nonzero;fill:rgb(42.352941%,38.823529%,100%);fill-opacity:1;" d="M 260.601562 174.167969 C 246.699219 176.730469 220.527344 176.179688 209.214844 175.789062 C 213.363281 160.90625 233.582031 165.964844 233.582031 165.964844 C 258.609375 160.964844 260.523438 171.34375 260.601562 174.167969 Z M 260.601562 174.167969 "/>
<path style=" stroke:none;fill-rule:nonzero;fill:rgb(98.431373%,74.509804%,74.509804%);fill-opacity:1;" d="M 334.390625 239.789062 C 334.390625 239.789062 350.765625 237.269531 351.089844 244.46875 C 351.410156 251.671875 342.738281 256.703125 342.738281 256.703125 Z M 334.390625 239.789062 "/>
<use xlink:href="#surface65" mask="url(#mask20)"/>
<path style=" stroke:none;fill-rule:nonzero;fill:rgb(24.705882%,23.921569%,33.72549%);fill-opacity:1;" d="M 226.816406 92.152344 C 225.429688 92.519531 223.953125 92.210938 222.828125 91.3125 L 223.828125 92.703125 C 222.636719 92.839844 221.449219 92.445312 220.578125 91.621094 C 220.484375 92.863281 220.539062 94.113281 220.730469 95.34375 C 219.078125 95.421875 217.457031 94.910156 216.148438 93.902344 C 216.09375 94.789062 216.601562 95.613281 217.414062 95.972656 C 213.984375 95.5625 210.785156 97.761719 209.933594 101.113281 L 212.4375 101.34375 C 210.46875 101.765625 208.707031 102.84375 207.433594 104.402344 C 206.664062 105.363281 206.082031 106.59375 206.417969 107.761719 C 206.75 108.933594 208.371094 109.683594 209.253906 108.847656 C 206.714844 111.886719 205.644531 115.890625 206.328125 119.792969 C 206.558594 120.613281 206.632812 121.46875 206.550781 122.316406 C 206.390625 123.109375 205.894531 123.796875 205.644531 124.570312 C 205.164062 125.96875 205.621094 127.492188 206.046875 128.890625 L 208.296875 136.292969 C 209.109375 138.96875 209.921875 141.648438 210.984375 144.234375 C 211.738281 145.871094 212.378906 147.558594 212.902344 149.28125 C 213.503906 151.605469 213.53125 154.148438 214.820312 156.179688 C 215.703125 157.460938 216.882812 158.503906 218.261719 159.21875 C 223 161.9375 228.730469 162.515625 234.15625 161.863281 C 239.582031 161.207031 244.789062 159.40625 249.949219 157.621094 C 251.097656 157.277344 252.199219 156.792969 253.230469 156.179688 C 256.800781 153.839844 257.597656 149.046875 258.261719 144.824219 C 259.003906 140.121094 259.996094 135.425781 261.757812 130.996094 C 262.800781 128.363281 264.152344 125.6875 263.921875 122.863281 C 263.632812 119.113281 260.667969 116.074219 259.933594 112.386719 C 259.691406 111.15625 259.703125 109.882812 259.96875 108.65625 C 260.195312 107.925781 260.324219 107.164062 260.347656 106.398438 C 260.265625 104.855469 259 103.664062 257.8125 102.667969 C 255.234375 100.511719 252.570312 98.472656 249.824219 96.550781 C 249.6875 95.59375 250.992188 95.179688 251.582031 94.421875 C 252.414062 93.351562 251.550781 91.648438 250.285156 91.152344 C 249.019531 90.652344 247.601562 90.976562 246.285156 91.308594 C 246.460938 89.921875 245.707031 88.582031 244.429688 88.015625 C 243.152344 87.449219 241.652344 87.792969 240.746094 88.855469 C 240.035156 87.21875 238.488281 86.097656 236.710938 85.9375 C 233.53125 85.6875 233.46875 88.121094 231.4375 89.460938 C 229.40625 90.800781 227.726562 89.03125 226.164062 87.746094 C 225.582031 89.226562 225.828125 90.90625 226.816406 92.152344 Z M 226.816406 92.152344 "/>
<path style=" stroke:none;fill-rule:nonzero;fill:rgb(42.352941%,38.823529%,100%);fill-opacity:1;" d="M 346.535156 254.191406 C 346.535156 254.191406 346.109375 255.210938 345.320312 256.683594 C 344.132812 258.953125 342.683594 261.074219 341.007812 263.007812 L 340.878906 263.148438 L 340.101562 263.148438 L 312.425781 263.402344 L 311.761719 263.402344 L 311.679688 263.304688 L 306.3125 256.925781 L 304.289062 254.519531 L 304.207031 254.417969 L 304.035156 254.21875 L 303.9375 254.101562 L 303.816406 253.953125 L 299.878906 249.277344 L 301.316406 243.273438 L 303.765625 233.164062 L 303.828125 232.917969 L 304.308594 230.996094 L 304.648438 229.558594 L 305.789062 224.859375 L 309.699219 208.703125 L 316.652344 212.304688 L 323.980469 225.269531 L 327.917969 232.230469 L 330.074219 232.230469 C 330.480469 232.230469 331.414062 233.019531 332.355469 233.925781 C 332.691406 234.25 333.027344 234.589844 333.3125 234.886719 C 334.167969 235.769531 334.84375 236.527344 334.84375 236.527344 C 334.84375 236.527344 338.335938 236.605469 339.277344 239.363281 C 339.324219 239.496094 339.367188 239.632812 339.398438 239.769531 C 339.707031 240.851562 340.113281 241.90625 340.609375 242.917969 C 341.226562 244.269531 342.003906 245.800781 342.789062 247.332031 C 344.253906 250.140625 345.738281 252.816406 346.285156 253.785156 L 346.351562 253.90625 Z M 346.535156 254.191406 "/>
<use xlink:href="#surface68" mask="url(#mask21)"/>
<path style=" stroke:none;fill-rule:nonzero;fill:rgb(24.705882%,23.921569%,33.72549%);fill-opacity:1;" d="M 167.648438 265.292969 L 167.648438 264.890625 L 251.828125 263.972656 L 303.121094 263.492188 L 303.261719 263.492188 L 303.261719 263.410156 L 303.742188 256.957031 L 303.949219 254.078125 L 304.734375 243.222656 L 305.351562 234.628906 L 305.351562 234.417969 C 305.382812 234.019531 305.363281 233.621094 305.300781 233.230469 C 305.304688 233.214844 305.304688 233.199219 305.300781 233.183594 C 305.167969 232.371094 304.839844 231.605469 304.34375 230.953125 C 303.269531 229.574219 301.5625 228.851562 299.828125 229.035156 C 294.023438 229.628906 288.160156 230.105469 282.292969 230.472656 C 281.492188 230.53125 280.691406 230.578125 279.894531 230.621094 C 242.054688 232.875 204.554688 231.050781 184.265625 229.664062 L 182.828125 229.558594 C 179.3125 229.308594 176.375 229.078125 174.113281 228.878906 C 171.535156 228.664062 169.210938 230.429688 168.726562 232.976562 C 168.675781 233.234375 168.648438 233.5 168.640625 233.761719 L 168.3125 244.402344 L 167.867188 257.878906 L 167.65625 264.777344 L 167.65625 265.3125 Z M 167.648438 265.292969 "/>
<use xlink:href="#surface71" mask="url(#mask22)"/>
<use xlink:href="#surface74" mask="url(#mask23)"/>
<path style=" stroke:none;fill-rule:nonzero;fill:rgb(24.705882%,23.921569%,33.72549%);fill-opacity:1;" d="M 143.132812 247.546875 L 118.085938 248.027344 L 118.085938 243.867188 L 143.132812 243.386719 Z M 143.132812 247.546875 "/>
<use xlink:href="#surface77" mask="url(#mask24)"/>
<path style=" stroke:none;fill-rule:nonzero;fill:rgb(24.705882%,23.921569%,33.72549%);fill-opacity:1;" d="M 144.089844 247.546875 L 119.046875 248.027344 L 119.046875 243.867188 L 144.089844 243.386719 Z M 144.089844 247.546875 "/>
<use xlink:href="#surface80" mask="url(#mask25)"/>
<use xlink:href="#surface83" mask="url(#mask26)"/>
<use xlink:href="#surface86" mask="url(#mask27)"/>
<path style="fill:none;stroke-width:2;stroke-linecap:butt;stroke-linejoin:miter;stroke:rgb(42.352941%,38.823529%,100%);stroke-opacity:1;stroke-miterlimit:10;" d="M 198.993135 342.857466 L 300.596247 341.85679 " transform="matrix(0.479347,0,0,0.480144,0,0)"/>
<path style="fill:none;stroke-width:2;stroke-linecap:butt;stroke-linejoin:miter;stroke:rgb(42.352941%,38.823529%,100%);stroke-opacity:1;stroke-miterlimit:10;" d="M 198.993135 355.3293 L 300.596247 354.33676 " transform="matrix(0.479347,0,0,0.480144,0,0)"/>
<path style="fill:none;stroke-width:2;stroke-linecap:butt;stroke-linejoin:miter;stroke:rgb(42.352941%,38.823529%,100%);stroke-opacity:1;stroke-miterlimit:10;" d="M 198.993135 367.809269 L 300.596247 366.808594 " transform="matrix(0.479347,0,0,0.480144,0,0)"/>
</g>
</svg>
